<?xml version="1.0" standalone="no"?>
<!DOCTYPE svg PUBLIC "-//W3C//DTD SVG 1.1//EN" "http://www.w3.org/Graphics/SVG/1.1/DTD/svg11.dtd" >
<svg xmlns="http://www.w3.org/2000/svg">
<metadata>Generated by IcoMoon</metadata>
<defs>
<font id="icomoon" horiz-adv-x="1024">
<font-face units-per-em="1024" ascent="960" descent="-64" />
<missing-glyph horiz-adv-x="1024" />
<glyph unicode="&#x20;" horiz-adv-x="512" d="" />
<glyph unicode="&#xe900;" glyph-name="car-with-luggage" d="M645.565 559.304c15.583 0 31.165 13.357 31.165 28.939v97.948h-264.904l84.591-126.887h149.148zM382.887 590.47c0-11.13-4.452-22.261-8.904-28.939h69.009l-57.878 89.043v-60.104zM376.209 737.391l4.452-6.678h293.843v44.522c2.226 15.583-13.357 28.939-28.939 28.939h-171.409c-22.261-26.713-57.878-48.974-97.948-66.783zM111.304 559.304h220.383c15.583 0 28.939 13.357 28.939 28.939v93.496l-2.226 4.452h-276.035v-97.948c0-15.583 13.357-28.939 28.939-28.939zM385.113 859.826c4.452 0 8.904 0 13.357 0-13.357-11.13-37.843-28.939-73.461-42.296l40.070-60.104c69.009 31.165 126.887 75.687 111.304 129.113-6.678 20.035-28.939 44.522-89.043 44.522-35.617 0-77.913-8.904-120.209-22.261 0 0 0 0-2.226 0l40.070-60.104c28.939 6.678 57.878 11.13 80.139 11.13zM140.243 730.713h149.148c11.13 2.226 20.035 6.678 31.165 8.904 0 0 0 0 0 0l-40.070 60.104c-28.939-8.904-57.878-13.357-80.139-13.357-4.452 0-8.904 0-13.357 0 13.357 11.13 37.843 28.939 73.461 42.296l-37.843 62.33c-69.009-28.939-126.887-75.687-109.078-126.887 2.226-11.13 11.13-24.487 26.713-33.391zM863.722 254.33l-55.652 11.13c-13.357 2.226-24.487 11.13-31.165 22.261l-24.487 48.974c-66.783 117.983-191.443 195.896-327.235 195.896h-73.461c-135.791 0-258.226-77.913-322.783-198.122-20.035-33.391-28.939-75.687-28.939-113.53v-22.261h48.974c11.13 0 17.809-8.904 17.809-20.035v-73.461c0-11.13-6.678-17.809-17.809-17.809h-48.974v-28.939c0-24.487 20.035-37.843 44.522-37.843h71.235c0 2.226 0 4.452 0 8.904 0 60.104 48.974 106.852 106.852 106.852s106.852-48.974 106.852-106.852c0-2.226 0-6.678 0-8.904h273.809c0 2.226 0 4.452 0 8.904 0 60.104 48.974 106.852 106.852 106.852 60.104 0 106.852-48.974 106.852-106.852 0-2.226 0-6.678 0-8.904h162.504c24.487 0 44.522 17.809 44.522 42.296 0 93.496-66.783 173.635-160.278 191.443zM356.174 287.722h-247.096c-6.678 0-15.583 4.452-17.809 11.13-4.452 6.678-4.452 15.583 0 22.261 0 0 0 0 0 0 53.426 97.948 151.374 158.052 264.904 158.052v0-191.443zM687.861 298.852c-4.452-6.678-11.13-11.13-20.035-11.13h-244.87v191.443c111.304-2.226 209.252-55.652 262.678-151.374 2.226-6.678 6.678-20.035 2.226-28.939zM959.443 91.826c-15.583-15.583-51.2-4.452-75.687 24.487s-31.165 62.33-15.583 77.913c15.583 15.583 51.2 4.452 75.687-24.487s31.165-64.557 15.583-77.913zM222.609 91.826c-35.617 0-62.33-28.939-62.33-62.33 0-35.617 28.939-62.33 62.33-62.33s62.33 28.939 62.33 62.33c2.226 33.391-26.713 62.33-62.33 62.33zM712.348 91.826c-35.617 0-62.33-28.939-62.33-62.33 0-35.617 28.939-62.33 62.33-62.33 35.617 0 62.33 28.939 62.33 62.33s-28.939 62.33-62.33 62.33z" />
<glyph unicode="&#xe901;" glyph-name="car-seat" d="M902.557 934.046c-15.614 16.735-37.143 25.954-60.63 25.954h-64.547c-47.569 0-92.969-38.115-101.192-84.969l-4.071-23.171c-4.092-23.316 1.415-45.4 15.511-62.186s34.893-26.027 58.567-26.027h83.379c11.568 0 22.757 2.31 33.154 6.411l-8.862-75.706c-8.529 3.585-17.894 5.494-27.736 5.494h-95.13c-40.754 0-80.783-32.433-89.24-72.296l-84.108-396.527-396.834 28.516c-21.445 1.534-39.347-5.733-50.447-20.004-10.396-13.367-13.435-31.299-8.563-50.498l46.137-181.659c9.996-39.356 51.167-71.38 91.771-71.38h507.105c41.146 0 78.157 33.294 82.496 74.214l65.097 613.718c0.371 3.508 0.413 6.965 0.294 10.388l22.28 190.312c3.146 8.197 5.145 16.909 5.771 25.946l1.475 21.185c1.637 23.427-6.066 45.545-21.679 62.284z" />
<glyph unicode="&#xe902;" glyph-name="water-bottle" d="M686.992 663.314l-84.262 163.466c-6.533 12.673-23.543 23.042-37.802 23.042h-105.857c-14.258 0-31.269-10.37-37.802-23.044l-84.262-163.466c-4.643-9.006-8.674-22.243-10.625-33.846h371.232c-1.951 11.603-5.982 24.84-10.625 33.848zM325.131-38.076c0-14.258 11.666-25.924 25.924-25.924h321.89c14.258 0 25.924 11.666 25.924 25.924v260.321h-373.738v-260.321zM452.591 869.266h118.819c14.258 0 25.924 11.666 25.924 25.924v38.886c0 14.258-11.666 25.924-25.924 25.924h-118.819c-14.258 0-25.924-11.666-25.924-25.924v-38.886c0-14.258 11.666-25.924 25.924-25.924zM706.43 493.367c4.159 0 7.561 11.666 7.561 25.924v47.527c0 7.732-1.007 14.682-2.586 19.443h-398.811c-1.579-4.761-2.586-11.711-2.586-19.443v-47.527c0-14.258 3.403-25.924 7.561-25.924s7.561-4.133 7.561-9.181-3.403-9.181-7.561-9.181-7.561-11.666-7.561-25.924v-47.527c0-14.258 3.403-25.924 7.561-25.924s7.561-4.133 7.561-9.181-3.403-9.181-7.561-9.181-7.561-11.666-7.561-25.924v-47.527c0-7.159 0.86-13.66 2.238-18.363h399.507c1.38 4.703 2.238 11.204 2.238 18.363v47.527c0 14.258-3.403 25.924-7.561 25.924s-7.561 4.133-7.561 9.181 3.403 9.181 7.561 9.181 7.561 11.666 7.561 25.924v47.527c0 14.258-3.403 25.924-7.561 25.924s-7.561 4.133-7.561 9.181 3.403 9.181 7.561 9.181zM505.789 322.759c-45.097 0-81.654 36.557-81.654 81.654s81.654 138.642 81.654 138.642 81.654-93.545 81.654-138.642-36.557-81.654-81.654-81.654z" />
<glyph unicode="&#xe903;" glyph-name="golf-bag" d="M762.042 698.938c17.936-6.063 45.942 8.289 49.343 38.958 2.076 18.689-3.676 36.938-21.831 42.763l-72.333 6.745c-25.192 7.48-52.153-6.763-60.147-31.828l-66.893-179.874-34.071-7.958-12.384 326.998c0.277 26.315-20.876 48.277-47.137 49.047l-70.807 16.21c-19.058 0.148-30.229-15.399-34.108-33.794-6.376-30.193 15.732-52.576 34.676-52.43l77.257-4.099 12.442-311.305-55.258-12.918-93.888 252.48c-7.995 25.066-34.934 39.31-60.147 31.828l-72.312-6.743c-18.138-5.844-23.889-24.074-21.831-42.763 3.4-30.671 31.406-45.023 49.341-38.958l74.664 20.288 84.367-225.429-11.65-2.719c-24.937 0-45.723-17.477-50.977-40.851-24.551-6.561-107.175-42.046-94.384-219.825 7.975-110.701 53.587-173.441 93.023-207.476v-76.944c0-28.907 23.43-52.337 52.337-52.337h223.905c28.907 0 52.335 23.413 52.335 52.337v8.729h47.468c19.277 0 34.878 15.62 34.878 34.878v197.183c0 19.275-15.62 34.878-34.878 34.878h-47.468v125.478h14.169c19.258 0 34.878 15.639 34.878 34.878v87.217c0 19.277-15.639 34.88-34.878 34.88h-16.006c-5.494 21.261-23.945 37.157-46.457 38.904l50.077 133.803 74.684-20.232zM357.034 144.156c-19.644 29.901-36.533 72.443-40.851 132.35-7.645 106.218 21.703 144.553 40.851 158.246v-290.596z" />
<glyph unicode="&#xe904;" glyph-name="ski" d="M964.394 872.020c-20.17 55.412-72.264 87.98-125.426 87.98-49.378 0-98.12-27.796-121.164-77.216-31.128-66.752-2.142-146.39 64.614-177.518 17.934-8.364 36.892-12.604 56.352-12.604 92.312 0 157.464 91.89 125.624 179.358zM847.93 38.222c-16.72 7.788-36.586 0.564-44.382-16.152-7.762-16.65-27.594-23.898-44.262-16.21l-216.166 103.176c-0.092 0.044-0.184 0.074-0.276 0.116l70.598 151.398c10.68 22.95 7.54 49.516-8.196 69.344l-100.268 126.35 61.076 48.85c6.070-4.964 194.802-92.266 192.572-91.226 33.682-15.706 73.39-0.662 88.76 32.306 15.538 33.324 1.018 73.222-32.308 88.758l-95.64 44.598-55.242 151.78c-12.432 34.156-50.786 52.89-85.948 40.090-10.698-4.154-103.45-78.834-160.476-124.644-48.842 22.776-106.766 49.786-137.296 64.024l14.112 30.268c7.794 16.716 0.562 36.586-16.152 44.38-16.714 7.79-36.586 0.562-44.38-16.154l-14.112-30.266-30.268 14.112c-16.714 7.792-36.586 0.562-44.38-16.152-7.794-16.718-0.564-36.588 16.152-44.382l30.268-14.112-14.112-30.268c-10.35-22.194 5.98-47.516 30.244-47.516 12.576 0 24.624 7.14 30.288 19.292l14.112 30.264 107.062-49.924c-2.226-1.74-16.782-12.19-33.28-25.262-14.262-11.318-23.212-27.408-25.198-45.306-1.94-17.454 3.012-34.55 13.934-48.138l160.078-202.194-53.068-113.802-322.832 150.538c-16.716 7.792-36.584 0.564-44.38-16.154-7.794-16.716-0.562-36.586 16.152-44.38l659.954-310.112c0.090-0.044 0.18-0.084 0.27-0.13 50.070-23.35 109.796-1.604 133.142 48.458 7.794 16.716 0.564 36.586-16.152 44.382z" />
<glyph unicode="&#xe905;" glyph-name="snowboard" d="M880.994 804.435c35.853 34.971 36.546 92.372 1.612 128.19-34.934 35.853-92.261 36.581-128.072 1.651-35.816-34.934-36.623-92.263-1.651-128.078 34.823-35.892 92.258-36.621 128.111-1.763zM982.382 23.453c-9.049 19.67-32.288 28.339-52.077 19.251-39.265-18.062-80.759-41.49-142.532-18.714l-99.314 36.773 58.555 216.654c5.216 19.325 0.27 39.993-13.147 54.833l-124.509 137.895 82.904 80.753 12.575-40.724c4.869-15.836 17.444-28.147 33.361-32.711l156.603-44.898c25.887-7.441 53.186 7.435 60.699 33.625 7.474 26.077-7.592 53.266-33.632 60.699l-131.059 37.583-19.791 64.037c26.382 30.335 25.85 76.156-2.685 105.449l-23.234 23.852c-10.47 10.738-27.992 19.672-36.738 21.895l-192.072 49.239c-17.484 4.523-36.16-1.036-48.351-14.379l-115.573-125.967c-18.328-19.979-16.986-50.998 2.993-69.325 19.938-18.369 51.078-16.912 69.325 2.989l95.71 104.297 63.961-16.412-136.661-133.135c-22.739-20.318-40.037-46.469-27.955-75.192l54.028-128.578-262.012-136.083-2.84 1.034c-61.698 22.896-77.919 67.678-95.978 106.947-9.049 19.67-32.288 28.335-52.073 19.248-19.707-9.049-28.339-32.368-19.248-52.075 18.060-39.267 45.55-112.774 140.075-147.746l578.866-214.198c94.484-35.126 163.314 2.952 202.583 21.011 19.709 9.049 28.337 32.366 19.246 52.073zM576.226 293.675c7.788 4.023 13.921 9.854 18.982 16.377l29.718-32.905-47.468-175.317-216.613 80.142 215.381 111.703z" />
<glyph unicode="&#xe906;" glyph-name="wheelchair" d="M879.28 165.441c-12.991 19.696-39.183 24.097-58.879 10.896l-10.896-6.496-113.568 198.64c-8.8 12.991-21.792 21.792-37.088 21.792h-120.064v91.567h78.576c24.097 0 43.583 19.696 43.583 43.583 0 24.097-19.696 43.583-43.583 43.583h-78.576v54.479c0 24.097-19.696 43.583-43.583 43.583-23.678 0-43.164-19.277-43.583-42.745-175.591-15.506-314.303-163.857-314.303-343.429 0-189.839 155.056-344.895 344.895-344.895 114.616 0 218.755 55.736 282.663 144.37 24.097-22.001 44.631-11.315 51.127-6.915l52.384 32.688c19.487 13.41 23.887 39.602 10.896 59.299zM482.001 19.186c-143.951 0-259.614 115.664-259.614 259.614 0 133.684 99.739 242.852 229.232 257.938v-188.163c0-24.097 19.696-43.583 43.583-43.583h137.455l81.928-142.484c-44.631-86.748-133.684-143.322-232.584-143.322zM492.897 711.072c69.775 0 124.464 56.784 124.464 124.464s-54.479 124.464-124.464 124.464c-67.68 0-124.464-56.784-124.464-124.464 0.21-67.68 54.689-124.464 124.464-124.464zM492.897 877.024c21.792 0 41.488-17.391 39.183-39.183 0-21.792-17.391-39.183-39.183-39.183s-39.183 17.391-39.183 39.183c0 21.582 17.391 39.183 39.183 39.183z" />
<glyph unicode="&#xe907;" glyph-name="bicycle-solid" horiz-adv-x="1280" d="M1025.018 575.998c-32.746 0.128-64.060-5.91-92.872-16.99l-155.36 250.306c-8.61 13.708-23.648 22.686-40.782 22.686-0.001 0-0.001 0-0.002 0h-128c-17.674 0-32-14.326-32-32v-32c0-17.674 14.326-32 32-32h101.298l29.792-48h-227.088v32c0 17.674-14.326 32-32 32h-174.918c-26.882 0-49.554-21.998-49.072-48.874 0.464-26.088 21.752-47.126 47.99-47.126h97.452l-58.834-95.040c-26.866 9.66-55.808 14.966-85.984 15.040-140.45 0.34-255.814-114.024-256.634-254.472-0.83-142.086 114.106-257.528 256-257.528 119.284 0 219.516 81.586 247.934 192h104.066c17.154 0 32.207 8.999 40.695 22.533l0.117 0.201 171.924 277.726 29.876-48.134c-50.91-46.896-82.77-114.162-82.614-188.874 0.29-137.666 115.798-254.102 253.458-255.438 141.212-1.37 256.362 111.606 258.51 251.992 2.172 141.882-113.052 259.44-254.952 259.992zM373.5 428.456c19.454-21.058 33.346-47.322 39.284-76.456h-86.612l47.328 76.456zM256.004 160c-88.224 0-160 71.776-160 160s71.776 160 160 160c11.738 0 23.172-1.306 34.198-3.718l-91.010-147.018c-19.762-31.918 3.234-73.264 40.812-73.264h162.6c-24.74-56.45-81.124-96-146.6-96zM581.264 352h-71.248c-7.92 63.512-39.112 119.788-84.766 160.052l49.492 79.948h255.094l-148.572-240zM1015.378 160.228c-82.072 4.33-148.098 71.384-151.254 153.51-1.624 42.242 13.266 81.036 38.67 110.526l88.866-143.172c9.32-15.016 29.048-19.632 44.064-10.312l27.188 16.874c15.016 9.32 19.634 29.048 10.312 44.064l-88.936 143.286c11.896 3.172 25.554 4.994 39.638 4.994 0.027 0 0.055 0 0.082 0h-0.004c88.224 0 160-71.776 160-160-0.002-91.080-76.504-164.632-168.626-159.77z" />
<glyph unicode="&#xe908;" glyph-name="baby-stroller" d="M612.775 119.369c-50.554 0-91.683-41.129-91.683-91.686 0-50.554 41.129-91.683 91.683-91.683s91.683 41.129 91.683 91.683c0 50.557-41.129 91.686-91.683 91.686zM612.775-9.167c-20.322 0-36.855 16.531-36.855 36.853s16.531 36.853 36.855 36.853c20.319 0 36.853-16.531 36.853-36.853s-16.531-36.853-36.853-36.853zM944.664 935.285c-50.399 39.496-123.496 30.704-163.097-19.568l-123.595-151.935c-0.146-0.178-0.291-0.355-0.434-0.536l-488.54-600.548c46.361-3.106 86.381-29.644 108.316-67.859h218.015c23.364 40.704 67.239 68.2 117.446 68.2 17.058 0 33.373-3.203 48.42-8.988 29.932 32.538 48.271 75.892 48.271 123.484v457.271l117.429 144.356c0.111 0.137 0.218 0.274 0.326 0.413 19.754 25.201 56.327 29.629 81.522 9.881 12.653-9.919 30.954-7.701 40.876 4.955 9.916 12.653 7.701 30.954-4.955 40.87zM159.865 119.369c-50.554 0-91.683-41.129-91.683-91.686 0-50.554 41.129-91.683 91.683-91.683 50.557 0 91.686 41.129 91.686 91.683 0 50.557-41.127 91.686-91.686 91.686zM159.868-9.167c-20.322 0-36.855 16.531-36.855 36.853s16.531 36.853 36.855 36.853c20.319 0 36.853-16.531 36.853-36.853s-16.531-36.853-36.853-36.853z" />
<glyph unicode="&#xe909;" glyph-name="greeting-card" d="M736.886 694.455v265.545l-545.399-165.116v-28.725l-2.494 0.327v-745.552l646.020-84.929v745.548l-98.126 12.902zM617.346 798.908v-88.742l-204.377 26.869 204.377 61.874zM647.267 317.491c-22.728-34.559-141.762-116.738-141.762-116.738s-119.484 82.478-142.057 116.738c-11.3 17.15-19.326 36.081-17.995 60.961 2.359 44.042 38.368 80.406 82.47 80.406 45.337 0 71.74-48.374 77.438-48.374 6.507 0 34.041 48.374 77.438 48.374 44.098 0 80.107-36.368 82.466-80.406 1.327-24.88-6.666-43.736-17.999-60.961z" />
<glyph unicode="&#xe90a;" glyph-name="door-open-solid" horiz-adv-x="1280" d="M1248 64h-160v669.1c0 54.52-43.060 98.9-96 98.9h-224v-128h192v-768h288c17.68 0 32 14.32 32 32v64c0 17.68-14.32 32-32 32zM624.48 957.98l-384-99.48c-28.5-7.38-48.48-33.9-48.48-64.34v-730.16h-160c-17.68 0-32-14.32-32-32v-64c0-17.68 14.32-32 32-32h672v957.64c0 43.16-39.12 74.82-79.52 64.34zM528 384c-26.5 0-48 28.66-48 64s21.5 64 48 64 48-28.66 48-64-21.5-64-48-64z" />
<glyph unicode="&#xe90b;" glyph-name="child-seat" d="M785.067 661.333c0-55.467-42.667-102.4-98.133-102.4s-102.4 46.933-102.4 102.4 42.667 102.4 98.133 102.4 102.4-42.667 102.4-102.4zM704 520.533h-29.867c-85.333 0-162.133 51.2-204.8 128-4.267 4.267-8.533 8.533-8.533 12.8l-72.533-34.133c21.333-55.467 85.333-132.267 174.933-166.4l-72.533-204.8-153.6 46.933-110.933-226.133 81.067-21.333 72.533 149.333 174.933-55.467c38.4-8.533 81.067 12.8 93.867 51.2l93.867 260.267c8.533 29.867-8.533 59.733-38.4 59.733zM857.6 558.933l-136.533-384c-25.6-64-85.333-106.667-149.333-106.667-12.8 0-29.867 0-38.4 4.267l-110.933 34.133-38.4-72.533 81.067-21.333 55.467-17.067c21.333-4.267 38.4-8.533 59.733-8.533 98.133 0 187.733 59.733 221.867 157.867l140.8 413.867h-85.333zM260.267 631.467l-89.6 25.6c-8.533 0-17.067 12.8-17.067 21.333 0 12.8 12.8 25.6 25.6 25.6h55.467c8.533 0 21.333-4.267 29.867-8.533 4.267-4.267 12.8-4.267 17.067 0l29.867 29.867c4.267 4.267 4.267 17.067 0 21.333-25.6 17.067-51.2 25.6-76.8 25.6v38.4c0 8.533-4.267 12.8-12.8 12.8h-29.867c-8.533 0-12.8-4.267-12.8-12.8v-38.4c-55.467 0-98.133-46.933-93.867-102.4 4.267-38.4 34.133-68.267 68.267-81.067l85.333-25.6c8.533-4.267 17.067-12.8 17.067-25.6s-12.8-25.6-25.6-25.6h-51.2c-8.533 0-21.333 4.267-29.867 8.533-4.267 4.267-12.8 4.267-17.067 0l-29.867-29.867c-4.267-4.267-4.267-17.067 0-21.333 21.333-17.067 46.933-25.6 72.533-25.6v-38.4c0-8.533 4.267-12.8 12.8-12.8h25.6c8.533 0 12.8 4.267 12.8 12.8v38.4c38.4 0 76.8 25.6 89.6 59.733 25.6 59.733-4.267 110.933-55.467 128v0z" />
<glyph unicode="&#xe90c;" glyph-name="child-seat-free" d="M725.333 768c0-59.733-46.933-106.667-106.667-106.667s-106.667 46.933-106.667 106.667 46.933 106.667 106.667 106.667 106.667-46.933 106.667-106.667zM640 618.667h-34.133c-89.6 0-174.933 51.2-217.6 132.267-4.267 4.267-8.533 8.533-8.533 12.8l-76.8-34.133c21.333-59.733 89.6-136.533 187.733-174.933l-76.8-213.333-166.4 46.933-119.467-234.667 85.333-21.333 76.8 153.6 192-51.2c42.667-8.533 85.333 12.8 102.4 51.2l98.133 273.067c8.533 29.867-12.8 59.733-42.667 59.733zM806.4 661.333l-145.067-401.067c-25.6-68.267-89.6-110.933-157.867-110.933-12.8 0-29.867 0-42.667 4.267l-123.733 34.133-38.4-76.8 85.333-21.333 59.733-17.067c21.333-4.267 42.667-8.533 64-8.533 106.667 0 200.533 64 238.933 166.4l149.333 430.933h-89.6z" />
<glyph unicode="&#xe90d;" glyph-name="stop-extra" d="M973.4 701.4l22.4 22.4-209.4 209.4c-17.2 17.2-40.4 26.8-64.6 26.8h-418.8c-24.4 0-47.6-9.6-64.8-26.8l-209.4-209.4c-17.2-17.2-26.8-40.4-26.8-64.8v-418.8c0-24.4 9.6-47.6 26.8-64.8l209.4-209.4c17.2-17.2 40.4-26.8 64.8-26.8h418.8c24.4 0 47.6 9.6 64.8 26.8l209.4 209.4c17.2 17.2 26.8 40.4 26.8 64.8v418.8c0 24.4-9.6 47.6-26.8 64.8l-22.6-22.4-22.4-22.4c5.2-5.2 8.2-12.4 8.2-19.8v-418.8c0-7.4-3-14.6-8.2-19.8l-209.4-209.4c-5.2-5.2-12.4-8.2-19.8-8.2h-418.8c-7.4 0-14.6 3-19.8 8.2l-209.4 209.2c-5.2 5.2-8.2 12.4-8.2 19.8v418.8c0 7.4 3 14.6 8.2 19.8l209.4 209.4c5.2 5.2 12.4 8.2 19.8 8.2h418.8c7.4 0 14.6-3 19.8-8.2l209.4-209.4 22.4 22.6zM592.2 477.4l-132.4 38.6c-15.4 4.4-26 18.8-26 34.6 0 20 16.2 36.2 36.2 36.2h81.2c15 0 29.6-4.6 42-12.8 7.4-5 17.6-3.8 23.8 2.4l42.6 41.6c8.8 8.4 7.4 22.6-2.2 30-30 23.6-67.6 36.6-106 36.8v58.8c0 10.8-8.8 19.6-19.6 19.6h-39.2c-10.8 0-19.6-8.8-19.6-19.6v-58.8h-3c-78 0-140.8-67-133.6-146.6 5.2-56.4 48.2-102.4 102.6-118.4l125.6-36.8c15.4-4.6 26-18.8 26-34.6 0-20-16.2-36.2-36.2-36.2h-81.2c-15 0-29.6 4.6-42 12.8-7.4 5-17.6 3.8-23.8-2.4l-42.6-41.6c-8.8-8.4-7.4-22.6 2.2-30 30-23.6 67.6-36.6 106-36.8v-58.8c0-10.8 8.8-19.6 19.6-19.6h39.4c10.8 0 19.6 8.8 19.6 19.6v59c57.2 1.2 110.6 35 129.6 89 26.2 75.8-18 153.2-89 174v0z" />
<glyph unicode="&#xe90e;" glyph-name="stop-free" d="M973.4 701.4l22.4 22.4-209.4 209.4c-17.2 17.2-40.4 26.8-64.6 26.8h-418.8c-24.4 0-47.6-9.6-64.8-26.8l-209.4-209.4c-17.2-17.2-26.8-40.4-26.8-64.8v-418.8c0-24.4 9.6-47.6 26.8-64.8l209.4-209.4c17.2-17.2 40.4-26.8 64.8-26.8h418.8c24.4 0 47.6 9.6 64.8 26.8l209.4 209.4c17.2 17.2 26.8 40.4 26.8 64.8v418.8c0 24.4-9.6 47.6-26.8 64.8l-22.6-22.4-22.4-22.4c5.2-5.2 8.2-12.4 8.2-19.8v-418.8c0-7.4-3-14.6-8.2-19.8l-209.4-209.4c-5.2-5.2-12.4-8.2-19.8-8.2h-418.8c-7.4 0-14.6 3-19.8 8.2l-209.4 209.2c-5.2 5.2-8.2 12.4-8.2 19.8v418.8c0 7.4 3 14.6 8.2 19.8l209.4 209.4c5.2 5.2 12.4 8.2 19.8 8.2h418.8c7.4 0 14.6-3 19.8-8.2l209.4-209.4 22.4 22.6zM721.8 479.6v-209.4c0-66-64-119.6-130.2-119.6h-87c-56.6 0-108.4 32-133.8 82.6l-18.4 37-76.4 178c-7.6 17.6 0 38 17 46.6 16.6 8.4 42.2 2.6 52-13.2l47.6-67.8v305c0 16.6 13.4 30 30 30s30-13.4 30-30v-224.4c0-8.2 6.6-15 15-15 8.2 0 15 6.6 15 15v284.2c0 16.6 13.4 30 30 30s30-13.4 30-30v-284.2c0-8.2 6.6-15 15-15s15 6.6 15 15v224.4c0 16.6 13.4 30 30 30s30-13.4 30-30v-254.2c0-8.2 6.6-15 15-15s15 6.6 15 15v164.6c0 16.6 13.4 30 30 30s30-13.4 30-30v-149.6z" />
<glyph unicode="&#xe90f;" glyph-name="long-arrow-alt-right-solid" horiz-adv-x="896" d="M627.882 528h-603.882c-13.254 0-24-10.746-24-24v-112c0-13.254 10.746-24 24-24h603.882v-92.118c0-42.764 51.702-64.18 81.942-33.942l172.118 172.118c18.746 18.746 18.746 49.138 0 67.882l-172.118 172.118c-30.238 30.238-81.942 8.822-81.942-33.942v-92.116z" />
<glyph unicode="&#xe910;" glyph-name="long-arrow-alt-left-solid" horiz-adv-x="896" d="M268.118 368h603.882c13.254 0 24 10.746 24 24v112c0 13.254-10.746 24-24 24h-603.882v92.118c0 42.764-51.702 64.18-81.942 33.942l-172.118-172.118c-18.746-18.746-18.746-49.138 0-67.882l172.118-172.118c30.238-30.238 81.942-8.822 81.942 33.942v92.116z" />
<glyph unicode="&#xe911;" glyph-name="less" d="M950.857 560.152c19.505 0 39.010-9.752 48.762-24.381 14.629-14.629 24.381-29.257 24.381-53.638v-73.143c0-19.505-9.752-39.010-24.381-53.638s-29.257-19.505-48.762-19.505h-877.714c-19.505 0-39.010 4.876-53.638 19.505-14.629 19.505-19.505 34.133-19.505 58.514v68.267c0 19.505 4.876 39.010 19.505 48.762 14.629 14.629 34.133 24.381 53.638 24.381h877.714z" />
<glyph unicode="&#xe912;" glyph-name="more" d="M950.857 557.714c19.807 0 36.571-7.619 50.283-22.857 15.243-13.714 22.86-30.476 22.86-50.286v-73.143c0-19.807-7.617-37.332-22.86-52.57-13.712-13.717-30.476-20.573-50.283-20.573h-329.143v-329.143c0-19.807-7.617-36.571-22.86-50.283-13.712-15.243-30.476-22.86-50.283-22.86h-73.143c-19.81 0-37.333 7.617-52.571 22.86-13.715 13.712-20.572 30.476-20.572 50.283v329.143h-329.143c-19.81 0-37.333 6.856-52.571 20.573-13.714 15.238-20.571 32.763-20.571 52.57v73.143c0 19.81 6.857 36.571 20.571 50.286 15.238 15.238 32.762 22.857 52.571 22.857h329.143v329.143c0 19.81 6.857 36.571 20.572 50.286 15.238 15.238 32.762 22.857 52.571 22.857h73.143c19.807 0 36.571-7.619 50.283-22.857 15.243-13.714 22.86-30.476 22.86-50.286v-329.143h329.143z" />
<glyph unicode="&#xe913;" glyph-name="close" d="M810.667 686.507l-60.16 60.16-238.507-238.507-238.507 238.507-60.16-60.16 238.507-238.507-238.507-238.507 60.16-60.16 238.507 238.507 238.507-238.507 60.16 60.16-238.507 238.507 238.507 238.507z" />
<glyph unicode="&#xe914;" glyph-name="assignment-exit" d="M213.333 832h178.347c17.92 49.493 64.853 85.333 120.32 85.333s102.4-35.84 120.32-85.333h178.347c46.933 0 85.333-38.4 85.333-85.333v-597.333c0-46.933-38.4-85.333-85.333-85.333h-597.333c-46.933 0-85.333 38.4-85.333 85.333v597.333c0 46.933 38.4 85.333 85.333 85.333zM512 832c-23.467 0-42.667-19.2-42.667-42.667s19.2-42.667 42.667-42.667c23.467 0 42.667 19.2 42.667 42.667s-19.2 42.667-42.667 42.667zM341.333 320h170.667v-128l213.333 213.333-213.333 213.333v-128h-170.667v-170.667z" />
<glyph unicode="&#xe915;" glyph-name="assignment-enter" d="M810.667 832h-178.347c-17.92 49.493-64.853 85.333-120.32 85.333s-102.4-35.84-120.32-85.333h-178.347c-46.933 0-85.333-38.4-85.333-85.333v-597.333c0-46.933 38.4-85.333 85.333-85.333h597.333c46.933 0 85.333 38.4 85.333 85.333v597.333c0 46.933-38.4 85.333-85.333 85.333zM512 832c23.467 0 42.667-19.2 42.667-42.667s-19.2-42.667-42.667-42.667c-23.467 0-42.667 19.2-42.667 42.667s19.2 42.667 42.667 42.667zM682.667 320h-170.667v-128l-213.333 213.333 213.333 213.333v-128h170.667v-170.667z" />
<glyph unicode="&#xe916;" glyph-name="done" d="M383.996 268.817l-179.2 179.2-59.733-59.733 238.933-238.933 512 512-59.733 59.733-452.267-452.266z" />
<glyph unicode="&#xe917;" glyph-name="credit-card" d="M853.333 789.333h-682.667c-47.36 0-84.907-37.973-84.907-85.333l-0.427-512c0-47.36 37.973-85.333 85.333-85.333h682.667c47.36 0 85.333 37.973 85.333 85.333v512c0 47.36-37.973 85.333-85.333 85.333zM853.333 192h-682.667v256h682.667v-256zM853.333 618.667h-682.667v85.333h682.667v-85.333z" />
<glyph unicode="&#xe918;" glyph-name="wifi" d="M42.667 576.010l85.333-85.335c212.053 212.055 555.947 212.055 768 0l85.333 85.335c-258.987 258.987-679.253 258.987-938.667 0zM384 234.675l128-128 128 128c-70.4 70.827-185.173 70.827-256 0zM213.333 405.342l85.333-85.333c117.76 117.76 308.907 117.76 426.667 0l85.333 85.333c-164.693 164.695-432.213 164.695-597.333 0z" />
<glyph unicode="&#xe919;" glyph-name="pool" d="M938.667 63.991c-47.36 0-73.813 15.787-93.013 27.307-15.787 9.387-25.6 15.36-49.067 15.36-23.893 0-33.28-5.547-49.067-15.36-19.627-11.52-45.653-27.307-93.013-27.307s-73.813 15.787-93.013 27.307c-15.787 9.387-25.6 15.36-49.067 15.36-23.893 0-33.28-5.547-49.067-15.36-19.627-11.52-46.080-27.307-93.44-27.307s-73.813 15.787-93.013 27.307c-15.787 9.813-25.6 15.36-49.067 15.36s-33.28-5.547-49.067-15.36c-19.627-11.52-46.080-27.307-93.44-27.307v85.333c23.893 0 33.28 5.547 49.067 15.36 19.627 11.52 46.080 27.307 93.44 27.307s73.813-15.787 93.013-27.307c15.787-9.813 25.173-15.36 49.067-15.36s33.28 5.547 49.067 15.36c19.627 11.52 46.080 27.307 93.44 27.307s73.813-15.787 93.013-27.307c15.787-9.387 25.6-15.36 49.067-15.36s33.28 5.547 49.067 15.36c19.2 11.52 45.653 27.307 93.013 27.307s73.813-15.787 93.013-27.307c15.787-9.813 25.173-15.36 49.067-15.36v-85.333zM938.667 255.991c-47.36 0-73.813 15.787-93.013 27.307-15.787 9.387-25.6 15.36-49.067 15.36-23.893 0-33.28-5.547-49.067-15.36-19.2-11.52-45.653-27.307-93.013-27.307s-73.813 15.787-93.013 27.307c-15.787 9.387-25.6 15.36-49.067 15.36-23.893 0-33.28-5.547-49.067-15.36-19.2-11.52-45.653-27.307-93.013-27.307s-73.813 15.787-93.013 27.307c-15.787 9.387-25.6 15.36-49.067 15.36s-33.28-5.547-49.067-15.36c-20.053-11.52-46.507-27.307-93.867-27.307v85.333c23.893 0 33.28 5.547 49.067 15.36 19.2 11.52 45.653 27.307 93.013 27.307s73.813-15.787 93.013-27.307c15.787-9.387 25.6-15.36 49.067-15.36 23.893 0 33.28 5.547 49.067 15.36 19.2 11.52 45.653 27.307 93.013 27.307s73.813-15.787 93.013-27.307c15.787-9.387 25.6-15.36 49.067-15.36s33.28 5.547 49.067 15.36c19.2 11.52 45.653 27.307 93.013 27.307s73.813-15.787 93.013-27.307c15.787-9.387 25.6-15.36 49.067-15.36v-85.333h0.853zM369.92 447.991c23.893 0 33.28 5.547 49.067 15.36 19.627 11.52 46.080 27.307 93.44 27.307s73.813-15.787 93.013-27.307c15.787-9.387 25.6-15.36 49.067-15.36s33.28 5.547 49.067 15.36c5.12 2.987 11.093 6.4 17.493 9.813l-273.92 273.495c-66.133 66.133-127.147 85.76-233.813 85.333v-106.667c77.653 0.427 123.307-16.64 170.667-64l42.667-42.667-138.667-138.668c13.227-5.12 23.893-11.52 32.853-16.64 15.787-9.813 25.173-15.36 49.067-15.36zM704 618.667c58.91 0 106.667 47.756 106.667 106.667s-47.757 106.667-106.667 106.667c-58.91 0-106.667-47.756-106.667-106.667s47.757-106.667 106.667-106.667z" />
<glyph unicode="&#xe91a;" glyph-name="ac" d="M938.667 490.667h-177.92l138.24 138.24-60.16 60.587-198.827-198.827h-85.333v85.333l198.827 198.827-60.587 60.16-138.24-138.24v177.92h-85.333v-177.92l-138.24 138.24-60.587-60.16 198.827-198.827v-85.333h-85.333l-198.827 198.827-60.16-60.587 138.24-138.24h-177.92v-85.333h177.92l-138.24-138.24 60.16-60.587 198.827 198.827h85.333v-85.333l-198.827-198.827 60.587-60.16 138.24 138.24v-177.92h85.333v177.92l138.24-138.24 60.587 60.16-198.827 198.827v85.333h85.333l198.827-198.827 60.16 60.587-138.24 138.24h177.92v85.333z" />
<glyph unicode="&#xe91b;" glyph-name="star-half" d="M938.667 565.76l-306.773 26.453-119.893 282.453-119.893-282.88-306.773-26.027 232.96-201.813-69.973-299.947 263.68 159.147 263.68-159.147-69.547 299.947 232.533 201.813zM512 302.933v396.8l72.96-172.373 186.88-16.213-141.653-122.88 42.667-182.613-160.853 97.28z" />
<glyph unicode="&#xe91c;" glyph-name="masks" d="M832 704c-55.893 0-101.12-43.093-105.813-98.133-80.213 21.333-121.173 76.8-214.187 76.8-93.44 0-133.973-55.467-214.187-76.8-4.693 54.613-49.92 98.133-105.813 98.133-58.88 0-106.667-47.787-106.667-106.667v-21.333c0-256 153.6-333.227 278.187-340.48 43.093-27.307 93.867-43.52 148.48-43.52s105.387 16.213 148.48 43.52c124.587 7.253 278.187 84.48 278.187 340.48v21.333c0 58.88-47.787 106.667-106.667 106.667zM149.333 576v21.333c0 23.467 19.2 42.667 42.667 42.667s42.667-19.2 42.667-42.667v-128c0-54.613 16.213-105.387 43.093-148.48-64.853 30.293-128.427 99.413-128.427 255.147zM874.667 576c0-155.733-63.573-224.853-128.427-255.147 27.307 43.093 43.093 93.867 43.093 148.48v128c0 23.467 19.2 42.667 42.667 42.667s42.667-19.2 42.667-42.667v-21.333zM456.107 512.853c-18.773-11.093-40.96-23.893-72.107-32.427v44.373c20.48 7.253 35.84 16.213 50.347 24.747 23.040 13.653 44.8 26.453 77.653 26.453s54.187-12.8 76.8-26.453c14.507-8.533 30.293-17.92 51.2-25.173v-44.373c-32 8.96-53.76 21.76-72.96 33.28-19.627 11.52-34.133 20.053-55.040 20.053s-35.84-8.533-55.893-20.48z" />
<glyph unicode="&#xe91d;" glyph-name="location" horiz-adv-x="717" d="M358.4 960c-198.144 0-358.4-160.256-358.4-358.4 0-268.8 358.4-665.6 358.4-665.6s358.4 396.8 358.4 665.6c0 198.144-160.256 358.4-358.4 358.4zM358.4 473.6c-70.656 0-128 57.344-128 128s57.344 128 128 128c70.656 0 128-57.344 128-128s-57.344-128-128-128z" />
<glyph unicode="&#xe91e;" glyph-name="instagram" d="M609.999 448c0-54.126-43.873-97.999-97.999-97.999s-97.999 43.873-97.999 97.999c0 54.126 43.873 97.999 97.999 97.999s97.999-43.873 97.999-97.999zM741.187 621.391c-4.71 12.767-12.227 24.32-21.99 33.805-9.485 9.766-21.033 17.283-33.805 21.993-10.36 4.024-25.923 8.812-54.587 10.117-31.007 1.413-40.305 1.718-118.804 1.718-78.508 0-87.805-0.297-118.804-1.71-28.664-1.313-44.234-6.1-54.587-10.125-12.772-4.71-24.328-12.227-33.805-21.993-9.764-9.485-17.28-21.030-21.998-33.805-4.024-10.358-8.814-25.928-10.117-54.592-1.416-31.002-1.72-40.297-1.72-118.804 0-78.502 0.305-87.798 1.72-118.807 1.303-28.662 6.093-44.227 10.117-54.584 4.718-12.774 12.227-24.32 21.99-33.805 9.485-9.766 21.033-17.283 33.805-21.993 10.36-4.032 25.93-8.819 54.595-10.125 30.999-1.413 40.289-1.71 118.797-1.71 78.515 0 87.813 0.297 118.804 1.71 28.664 1.306 44.234 6.093 54.595 10.125 25.641 9.892 45.906 30.157 55.795 55.798 4.024 10.358 8.814 25.923 10.125 54.584 1.416 31.009 1.713 40.305 1.713 118.807 0 78.508-0.297 87.803-1.713 118.804-1.303 28.664-6.093 44.234-10.125 54.592zM512 297.032c-83.382 0-150.976 67.587-150.976 150.971 0 83.382 67.594 150.968 150.976 150.968 83.374 0 150.968-67.587 150.968-150.968 0-83.384-67.594-150.971-150.968-150.971zM668.938 569.659c-19.484 0-35.282 15.795-35.282 35.279s15.798 35.282 35.282 35.282c19.484 0 35.279-15.798 35.279-35.282-0.008-19.484-15.795-35.279-35.279-35.279zM512 960c-282.727 0-512-229.273-512-512s229.273-512 512-512c282.726 0 512 229.274 512 512s-229.274 512-512 512zM804.227 326.789c-1.421-31.296-6.397-52.664-13.665-71.368-15.273-39.491-46.492-70.71-85.983-85.983-18.696-7.268-40.072-12.237-71.36-13.665-31.352-1.428-41.367-1.774-121.211-1.774-79.852 0-89.859 0.346-121.219 1.774-31.288 1.428-52.664 6.397-71.36 13.665-19.625 7.38-37.389 18.952-52.078 33.912-14.953 14.679-26.523 32.453-33.906 52.070-7.266 18.696-12.242 40.072-13.664 71.36-1.445 31.36-1.782 41.375-1.782 121.219s0.336 89.859 1.774 121.211c1.422 31.296 6.391 52.664 13.656 71.368 7.383 19.617 18.961 37.391 33.921 52.070 14.679 14.96 32.453 26.531 52.070 33.914 18.703 7.266 40.072 12.234 71.368 13.664 31.352 1.43 41.367 1.774 121.211 1.774s89.859-0.344 121.211-1.782c31.296-1.422 52.664-6.391 71.368-13.648 19.617-7.383 37.391-18.961 52.078-33.921 14.953-14.689 26.532-32.453 33.905-52.070 7.276-18.703 12.244-40.072 13.673-71.368 1.431-31.352 1.766-41.367 1.766-121.211s-0.335-89.859-1.774-121.211z" />
<glyph unicode="&#xe91f;" glyph-name="facebook" d="M512.003 960c-282.768 0-512.003-230.193-512.003-514.143 0-254.671 184.587-465.582 426.611-506.422v399.158h-123.51v143.639h123.51v105.915c0 122.892 74.747 189.861 183.933 189.861 52.293 0 97.234-3.913 110.28-5.636v-128.455l-75.727-0.036c-59.369 0-70.815-28.324-70.815-69.901v-91.674h141.658l-18.476-143.642h-123.182v-402.665c253.325 30.961 449.718 247.242 449.718 510.003 0 283.804-229.235 513.997-511.997 513.997z" />
<glyph unicode="&#xe920;" glyph-name="star-border" d="M938.667 565.76l-306.773 26.453-119.893 282.453-119.893-282.88-306.773-26.027 232.96-201.813-69.973-299.947 263.68 159.147 263.68-159.147-69.547 299.947 232.533 201.813zM512 302.933l-160.427-96.853 42.667 182.613-141.653 122.88 186.88 16.213 72.533 171.947 72.96-172.373 186.88-16.213-141.653-122.88 42.667-182.613-160.853 97.28z" />
<glyph unicode="&#xe921;" glyph-name="star-solid" d="M512 223.147l263.68-159.147-69.973 299.947 232.96 201.813-306.773 26.027-119.893 282.88-119.893-282.88-306.773-26.027 232.96-201.813-69.973-299.947 263.68 159.147z" />
<glyph unicode="&#xe922;" glyph-name="whatsapp" d="M874.803 811.188c-96.259 95.913-224.276 148.756-360.663 148.812-281.031 0-509.75-227.619-509.863-507.382-0.038-89.429 23.437-176.732 68.057-253.682l-72.334-262.936 270.287 70.564c74.477-40.431 158.322-61.74 243.648-61.764h0.212c281.003 0 509.747 227.639 509.853 507.412 0.058 135.588-52.927 263.069-149.197 358.975zM514.14 30.495h-0.174c-76.039 0.031-150.613 20.367-215.689 58.788l-15.468 9.141-160.393-41.875 42.811 155.631-10.080 15.957c-42.422 67.151-64.823 144.763-64.785 224.451 0.088 232.531 190.198 421.713 423.947 421.713 113.193-0.038 219.593-43.963 299.602-123.681s124.044-185.681 124.006-298.376c-0.099-232.55-190.198-421.748-423.779-421.748zM746.592 346.361c-12.735 6.352-75.373 37.014-87.054 41.25-11.67 4.233-20.173 6.339-28.655-6.349-8.499-12.687-32.908-41.25-40.346-49.705-7.434-8.465-14.858-9.527-27.6-3.178-12.742 6.345-53.787 19.739-102.451 62.932-37.871 33.621-63.437 75.138-70.871 87.825-7.424 12.701-0.065 18.9 5.588 25.876 13.793 17.043 27.6 34.912 31.846 43.37 4.253 8.462 2.123 15.869-1.068 22.211-3.178 6.345-28.655 68.75-39.267 94.144-10.349 24.713-20.845 21.375-28.669 21.762-7.424 0.369-15.92 0.444-24.417 0.444-8.491 0-22.294-3.169-33.975-15.869-11.675-12.694-44.582-43.363-44.582-105.769s45.65-122.692 52.018-131.157c6.368-8.462 89.834-136.523 217.63-191.437 30.396-13.073 54.122-20.869 72.629-26.713 30.519-9.649 58.283-8.288 80.241-5.024 24.477 3.645 75.366 30.676 85.992 60.286 10.612 29.621 10.612 55.002 7.421 60.297-3.178 5.287-11.674 8.455-24.409 14.804z" />
<glyph unicode="&#xe923;" glyph-name="arrow-left" d="M512 106.667l60.16 60.16-238.080 238.507h519.253v85.333h-519.253l238.080 238.507-60.16 60.16-341.333-341.333 341.333-341.333z" />
<glyph unicode="&#xe924;" glyph-name="arrow-right" d="M512 789.333l-60.16-60.16 238.080-238.507h-519.253v-85.333h519.253l-238.080-238.507 60.16-60.16 341.333 341.333-341.333 341.333z" />
<glyph unicode="&#xe925;" glyph-name="person" d="M512 448c94.293 0 170.667 76.373 170.667 170.667s-76.373 170.667-170.667 170.667c-94.293 0-170.667-76.373-170.667-170.667s76.373-170.667 170.667-170.667zM512 362.667c-113.92 0-341.333-57.173-341.333-170.667v-85.333h682.667v85.333c0 113.493-227.413 170.667-341.333 170.667z" />
<glyph unicode="&#xe926;" glyph-name="calendar" d="M810.667 832h-42.667v85.333h-85.333v-85.333h-341.333v85.333h-85.333v-85.333h-42.667c-47.36 0-84.907-38.4-84.907-85.333l-0.427-597.333c0-46.933 37.973-85.333 85.333-85.333h597.333c46.933 0 85.333 38.4 85.333 85.333v597.333c0 46.933-38.4 85.333-85.333 85.333zM810.667 149.333h-597.333v469.333h597.333v-469.333zM298.667 533.333h213.333v-213.333h-213.333v213.333z" />
<glyph unicode="&#xe927;" glyph-name="tour" d="M853.333 789.333h-135.253l-78.080 85.333h-256l-78.080-85.333h-135.253c-46.933 0-85.333-38.4-85.333-85.333v-512c0-46.933 38.4-85.333 85.333-85.333h682.667c46.933 0 85.333 38.4 85.333 85.333v512c0 46.933-38.4 85.333-85.333 85.333zM512 661.333c69.547 0 130.56-33.707 169.813-85.333h-169.813c-70.827 0-128-57.173-128-128 0-14.933 2.987-29.44 7.68-42.667h-88.747c-2.56 13.653-4.267 28.16-4.267 42.667 0 117.76 95.573 213.333 213.333 213.333zM512 234.667c-69.547 0-130.56 33.707-169.813 85.333h169.813c70.827 0 128 57.173 128 128 0 14.933-2.987 29.44-7.68 42.667h88.747c2.987-13.653 4.267-28.16 4.267-42.667 0-117.76-95.573-213.333-213.333-213.333z" />
<glyph unicode="&#xe928;" glyph-name="bed" d="M853.333 533.333v128c0 46.933-38.4 85.333-85.333 85.333h-512c-46.933 0-85.333-38.4-85.333-85.333v-128c-46.933 0-85.333-38.4-85.333-85.333v-213.333h56.747l28.587-85.333h42.667l28.587 85.333h540.587l28.16-85.333h42.667l28.587 85.333h56.747v213.333c0 46.933-38.4 85.333-85.333 85.333zM469.333 533.333h-213.333v128h213.333v-128zM768 533.333h-213.333v128h213.333v-128z" />
<glyph unicode="&#xe929;" glyph-name="hotel" d="M640 490.667v256l-128 128-128-128v-85.333h-256v-597.333h768v426.667h-256zM298.667 149.333h-85.333v85.333h85.333v-85.333zM298.667 320h-85.333v85.333h85.333v-85.333zM298.667 490.667h-85.333v85.333h85.333v-85.333zM554.667 149.333h-85.333v85.333h85.333v-85.333zM554.667 320h-85.333v85.333h85.333v-85.333zM554.667 490.667h-85.333v85.333h85.333v-85.333zM554.667 661.333h-85.333v85.333h85.333v-85.333zM810.667 149.333h-85.333v85.333h85.333v-85.333zM810.667 320h-85.333v85.333h85.333v-85.333z" />
<glyph unicode="&#xe92a;" glyph-name="logo" horiz-adv-x="5269" d="M999.796 630.458c-1.862 107.985-104.262 154.531-197.353 154.531-76.335 0-119.156-31.651-130.327-46.545-31.651 37.236-109.847 46.545-145.222 46.545-145.222 0-186.182-100.538-189.905-154.531v0-310.924h109.847v307.2c0 20.48 14.895 63.302 78.196 63.302s83.782-42.822 87.505-63.302v-307.2h109.847v307.2c1.862 20.48 20.48 63.302 83.782 63.302s81.92-42.822 83.782-63.302v-195.491c0-61.44 50.269-111.709 109.847-111.709v310.924zM1679.36 436.829v0 253.207c48.407 0 87.505 39.098 87.505 87.505h-87.505v76.335c0 39.098-26.065 48.407-39.098 48.407h-70.749v-525.033c-1.862-20.48 7.447-59.578 55.855-59.578h124.742v87.505h-46.545c-9.309 0-24.204 5.585-24.204 31.651zM1805.964 596.945v0-279.273h109.847v277.411c0 50.269 87.505 59.578 130.327 59.578 0 53.993 37.236 104.262 55.855 122.88-230.865-1.862-294.167-119.156-296.029-180.596zM4047.593 600.669v0-282.996h109.847v277.411c0 50.269 87.505 59.578 130.327 59.578 0 53.993 37.236 104.262 55.855 122.88-227.142-1.862-292.305-115.433-296.029-176.873zM2208.116 658.385c7.447 11.171 33.513 31.651 70.749 31.651 46.545 0 78.196-11.171 78.196-39.098s-55.855-52.131-119.156-55.855c-63.302-3.724-158.255-35.375-158.255-134.051-3.724-50.269 29.789-150.807 197.353-150.807 63.302 1.862 189.905 35.375 189.905 150.807v212.247c0 87.505-115.433 109.847-173.149 109.847-160.116 0-199.215-83.782-197.353-126.604h111.709zM2357.062 479.651c0-24.204-18.618-74.473-94.953-74.473-22.342 1.862-67.025 13.033-67.025 46.545 0 42.822 59.578 63.302 83.782 67.025s59.578 11.171 78.196 27.927v-67.025zM2708.945 783.127c-147.084 0-189.905-100.538-193.629-152.669v0-312.785h109.847v309.062c1.862 20.48 20.48 63.302 81.92 63.302 63.302 0 81.92-42.822 83.782-63.302v-307.2h109.847v310.924c-1.862 53.993-44.684 152.669-191.767 152.669zM3206.051 589.498c-134.051 31.651-137.775 42.822-137.775 63.302s20.48 39.098 74.473 39.098c44.684 0 74.473-39.098 83.782-59.578h106.124c0 102.4-106.124 150.807-189.905 150.807-81.92 0-193.629-31.651-193.629-150.807s169.425-137.775 225.28-150.807c44.684-9.309 52.131-29.789 52.131-39.098 1.862-14.895-13.033-46.545-83.782-46.545-68.887 0-89.367 46.545-91.229 70.749h-109.847c0-52.131 7.447-158.255 201.076-158.255s201.076 122.88 201.076 150.807c0 27.927-3.724 100.538-137.775 130.327zM4570.764 589.498c-134.051 31.651-137.775 42.822-137.775 63.302s20.48 39.098 74.473 39.098c44.684 0 74.473-39.098 81.92-59.578h106.124c0 102.4-106.124 150.807-189.905 150.807s-193.629-31.651-193.629-150.807c0-119.156 169.425-137.775 225.28-150.807 44.684-9.309 52.131-29.789 52.131-39.098 1.862-14.895-13.033-46.545-81.92-46.545s-89.367 46.545-91.229 70.749h-109.847c0-52.131 7.447-158.255 201.076-158.255s201.076 122.88 201.076 150.807c0 27.927-3.724 100.538-137.775 130.327zM3589.585 744.029h-87.505c0 57.716 46.545 65.164 70.749 63.302v98.676h-70.749c-87.505 0-109.847-68.887-109.847-104.262v-491.52h109.847v348.16c48.407 0 87.505 39.098 87.505 85.644zM3805.556 783.127c-72.611 1.862-217.833-40.96-217.833-225.28-5.585-83.782 26.065-249.484 193.629-249.484s214.109 96.815 217.833 145.222h-109.847c-14.895-16.756-52.131-52.131-91.229-52.131-46.545 0-91.229 46.545-91.229 106.124h299.753c9.309 94.953-20.48 275.549-201.076 275.549zM3706.88 595.084c1.862 29.789 24.204 91.229 91.229 91.229s83.782-59.578 83.782-91.229h-175.011zM4879.825 783.127h-139.636l186.182-236.451-186.182-236.451h139.636l184.32 236.451zM2669.847 176.175h-1105.92c-7.447 0-11.171-5.585-11.171-11.171s5.585-11.171 11.171-11.171h1104.058c7.447 0 11.171 5.585 11.171 11.171s-3.724 11.171-9.309 11.171zM3114.822 34.676c-1.862-9.309-3.724-18.618-5.585-26.065-1.862 11.171-3.724 18.618-5.585 24.204l-16.756 59.578h-14.895l-16.756-59.578c0-3.724-1.862-7.447-1.862-11.171-1.862-5.585-1.862-9.309-1.862-13.033-1.862 7.447-1.862 14.895-5.585 24.204l-14.895 59.578h-16.756l26.065-100.538h18.618l16.756 59.578c0 1.862 1.862 5.585 1.862 11.171 1.862 5.585 1.862 9.309 1.862 11.171 0-1.862 0-5.585 1.862-11.171s1.862-9.309 1.862-11.171l16.756-59.578h18.618l26.065 100.538h-16.756l-13.033-57.716zM3159.505-8.145h57.716v14.895h-40.96v31.651h39.098v13.033h-39.098v27.927h40.96v14.895h-57.716zM3308.451 94.255h-31.651v-102.4h27.927c16.756 0 31.651 3.724 40.96 13.033s13.033 22.342 13.033 39.098c0 14.895-3.724 27.927-13.033 37.236-9.309 7.447-22.342 13.033-37.236 13.033zM3304.727 6.749h-11.171v74.473h14.895c22.342 0 33.513-13.033 33.513-37.236 0-26.065-13.033-37.236-37.236-37.236zM3448.087 64.465c0 9.309-3.724 16.756-9.309 22.342s-16.756 7.447-29.789 7.447h-27.927v-102.4h16.756v40.96h16.756l24.204-40.96h18.618l-27.927 44.684c11.171 5.585 18.618 14.895 18.618 27.927zM3408.989 45.847h-11.171v33.513h11.171c7.447 0 13.033-1.862 16.756-3.724s5.585-7.447 5.585-13.033c0-5.585-1.862-9.309-5.585-13.033-3.724-1.862-9.309-3.724-16.756-3.724zM3472.291 94.255h16.756v-100.538h-16.756v100.538zM3552.349 30.953c0-1.862-1.862-5.585-3.724-11.171-1.862-3.724-1.862-9.309-1.862-13.033 0 1.862-1.862 5.585-1.862 11.171-1.862 5.585-1.862 9.309-3.724 11.171l-20.48 63.302h-16.756l33.513-100.538h16.756l35.375 100.538h-16.756l-20.48-61.44zM3604.48-8.145h55.855v14.895h-40.96v31.651h39.098v13.033h-39.098v27.927h40.96v14.895h-55.855zM4507.462 10.473c-3.724 0-5.585 0-7.447-1.862s-1.862-3.724-1.862-7.447c0-3.724 0-5.585 1.862-7.447s3.724-1.862 7.447-1.862c3.724 0 5.585 1.862 7.447 3.724s1.862 3.724 1.862 7.447 0 5.585-1.862 7.447c-1.862 0-3.724 0-7.447 0zM4514.909 23.505l1.862 70.749h-18.618l3.724-70.749zM3749.702 47.709l-24.204 46.545h-18.618l33.513-63.302v-39.098h16.756v39.098l33.513 63.302h-16.756zM3846.516 94.255c-14.895 0-27.927-3.724-35.375-13.033s-13.033-22.342-13.033-39.098c0-16.756 3.724-29.789 13.033-39.098 7.447-9.309 20.48-13.033 35.375-13.033s26.065 3.724 35.375 13.033c7.447 9.309 13.033 22.342 13.033 39.098s-3.724 29.789-13.033 39.098c-7.447 9.309-20.48 13.033-35.375 13.033zM3868.858 14.196c-5.585-5.585-13.033-9.309-22.342-9.309s-16.756 3.724-22.342 9.309c-5.585 5.585-7.447 16.756-7.447 27.927 0 13.033 1.862 22.342 7.447 27.927s13.033 9.309 22.342 9.309c9.309 0 16.756-3.724 22.342-9.309s7.447-16.756 7.447-27.927c0-11.171-1.862-22.342-7.447-27.927zM3978.705 29.091c0-16.756-7.447-24.204-24.204-24.204-7.447 0-14.895 1.862-18.618 5.585s-5.585 9.309-5.585 18.618v63.302h-16.756v-65.164c0-11.171 3.724-20.48 11.171-27.927s16.756-9.309 29.789-9.309c9.309 0 14.895 1.862 22.342 3.724 5.585 3.724 11.171 7.447 13.033 13.033 3.724 5.585 5.585 13.033 5.585 20.48v65.164h-16.756v-63.302zM4047.593 79.36h29.789v-87.505h16.756v87.505h29.789v14.895h-76.335zM4202.124 51.433h-46.545v42.822h-16.756v-102.4h16.756v46.545h46.545v-46.545h16.756v102.4h-16.756zM4244.945-8.145h57.716v14.895h-40.96v31.651h39.098v13.033h-39.098v27.927h40.96v14.895h-57.716zM4392.029 64.465c0 9.309-3.724 16.756-9.309 22.342s-16.756 7.447-29.789 7.447h-27.927v-102.4h16.756v40.96h16.756l24.204-40.96h18.618l-27.927 44.684c13.033 5.585 18.618 14.895 18.618 27.927zM4352.931 45.847h-11.171v33.513h11.171c7.447 0 13.033-1.862 16.756-3.724s5.585-7.447 5.585-13.033c0-5.585-1.862-9.309-5.585-13.033-3.724-1.862-9.309-3.724-16.756-3.724zM4416.233-8.145h57.716v14.895h-40.96v31.651h37.236v13.033h-37.236v27.927h40.96v14.895h-57.716zM1411.258 775.68c-11.171 0-35.375-13.033-46.545-63.302-7.447-31.651-42.822-152.669-78.196-266.24v0c-1.862-7.447-5.585-16.756-7.447-24.204 1.862 7.447 5.585 16.756 7.447 24.204l-100.538 329.542h-137.775l182.458-512c0 1.862 1.862 5.585 1.862 7.447s1.862 3.724 1.862 5.585c0-1.862-1.862-3.724-1.862-5.585s-1.862-3.724-1.862-7.447v0c-9.309-24.204-29.789-65.164-65.164-65.164v0 0h-832.233l83.782-109.847h750.313c0 0 0 0 0 0v0c35.375-3.724 115.433 14.895 150.807 119.156s145.222 422.633 197.353 567.855h-104.262z" />
<glyph unicode="&#xe92b;" glyph-name="room" d="M597.333 704v-640h-469.333v85.333h85.333v682.667h384v-42.667h213.333v-640h85.333v-85.333h-170.667v640h-128zM426.667 490.667v-85.333h85.333v85.333h-85.333z" />
<glyph unicode="&#xe92c;" glyph-name="confirmation" horiz-adv-x="1043" d="M245.76 529.92c0-9.309 3.724-18.618 11.171-24.204s18.618-11.171 33.513-16.756v87.505c-14.895-3.724-27.927-9.309-35.375-18.618-5.585-7.447-9.309-16.756-9.309-27.927zM355.607 382.836v-83.782c14.895 3.724 26.065 9.309 33.513 16.756s11.171 16.756 11.171 26.065c0 9.309-3.724 18.618-11.171 24.204-9.309 7.447-20.48 13.033-33.513 16.756zM521.309 960c-282.996 0-512-229.004-512-512s229.004-512 512-512c282.996 0 512 229.004 512 512s-229.004 512-512 512zM461.731 261.818c-24.204-24.204-61.44-39.098-107.985-44.684v-68.887h-61.44v67.025c-31.651 1.862-59.578 7.447-87.505 16.756s-50.269 20.48-67.025 33.513l33.513 74.473c14.895-11.171 33.513-20.48 55.855-27.927 20.48-7.447 42.822-13.033 65.164-14.895v102.4c-29.789 7.447-53.993 14.895-74.473 24.204s-37.236 20.48-50.269 37.236c-13.033 16.756-20.48 39.098-20.48 67.025 0 33.513 13.033 63.302 37.236 87.505 26.065 24.204 61.44 39.098 109.847 44.684v68.887h61.44v-67.025c50.269-3.724 93.091-16.756 126.604-37.236l-31.651-74.473c-31.651 16.756-63.302 27.927-94.953 31.651v-104.262c29.789-7.447 53.993-14.895 72.611-22.342 20.48-7.447 37.236-20.48 50.269-37.236s20.48-37.236 20.48-65.164c1.862-37.236-11.171-67.025-37.236-91.229zM687.011 276.713l-122.88 124.742 29.789 31.651 91.229-93.091 230.865 236.451 29.789-31.651-258.793-268.102z" />
<glyph unicode="&#xe92d;" glyph-name="hotel-small" horiz-adv-x="704" d="M40 824h136v-96c0-64 48-80 72-80h192c57.6 0 72 53.333 72 80v96h136c38.4 0 42.667-26.666 40-40v-808c0-32-26.667-40-40-40h-200v152c0 44.8-32 56-48 56h-128c-32 0-40-37.333-40-56v-152h-200c-25.6 0-32 26.667-32 40v808c0 38.4 26.667 42.667 40 40zM512 544c0 17.674 14.326 32 32 32h48c17.674 0 32-14.326 32-32v-48c0-17.674-14.326-32-32-32h-48c-17.674 0-32 14.326-32 32v48zM320 576c-17.674 0-32-14.326-32-32v-48c0-17.674 14.326-32 32-32h48c17.674 0 32 14.326 32 32v48c0 17.674-14.326 32-32 32h-48zM64 544c0 17.674 14.327 32 32 32h48c17.674 0 32-14.326 32-32v-48c0-17.674-14.326-32-32-32h-48c-17.673 0-32 14.326-32 32v48zM96 336c-17.673 0-32-14.326-32-32v-48c0-17.674 14.327-32 32-32h48c17.674 0 32 14.326 32 32v48c0 17.674-14.326 32-32 32h-48zM512 304c0 17.672 14.326 32 32 32h48c17.674 0 32-14.328 32-32v-48c0-17.674-14.326-32-32-32h-48c-17.674 0-32 14.326-32 32v48zM320 336c-17.674 0-32-14.328-32-32v-48c0-17.674 14.326-32 32-32h48c17.674 0 32 14.326 32 32v48c0 17.672-14.326 32-32 32h-48zM240 960h208c17.674 0 32-14.327 32-32v-208c0-17.674-14.326-32-32-32h-208c-17.674 0-32 14.326-32 32v208c0 17.673 14.326 32 32 32zM378.858 736h37.142v160h-37.142v-62.709h-69.595v62.709h-37.262v-160h37.262v69.056h69.595v-69.056z" />
<glyph unicode="&#xe92e;" glyph-name="search-dlls" horiz-adv-x="975" d="M861.46 529.27c0-99.372-33.652-190.885-90.18-263.765l178.569-209.176c17.484-20.482 15.056-51.26-5.427-68.745l-43.076-36.775c-20.482-17.486-51.26-15.056-68.746 5.426l-176.022 206.191c-65.664-40.513-143.025-63.888-225.847-63.888-237.885 0-430.73 192.845-430.73 430.73s192.845 430.73 430.73 430.73c237.885 0 430.73-192.845 430.73-430.73zM430.73 196.063c184.024 0 333.206 149.182 333.206 333.206s-149.182 333.206-333.206 333.206c-184.024 0-333.206-149.182-333.206-333.206s149.182-333.206 333.206-333.206zM568.889 477.828c0-25.522-9.496-47.465-28.487-65.829-18.991-18.052-46.369-29.257-82.135-33.615v-52.289h-47.478v50.89c-23.422 1.243-45.737 5.291-66.944 12.138s-38.298 15.251-51.275 25.21l26.112 56.959c12.028-8.715 26.114-16.030 42.255-21.943s32.758-9.648 49.851-11.205v77.967c-22.473 5.292-41.464 11.205-56.973 17.741-15.508 6.536-28.485 16.030-38.93 28.479-10.446 12.761-15.669 29.569-15.669 50.423 0 25.832 9.496 47.931 28.487 66.295 19.308 18.674 47.003 30.036 83.085 34.081v51.823h47.478v-50.89c38.93-3.111 71.057-12.605 96.378-28.479l-23.739-57.425c-23.739 13.384-47.951 21.476-72.639 24.279v-79.368c22.156-4.98 40.83-10.739 56.023-17.275 15.51-6.225 28.487-15.718 38.932-28.479 10.445-12.451 15.667-28.947 15.667-49.488zM375.657 616.489c0-7.782 3.007-14.162 9.021-19.142s14.718-9.182 26.112-12.605v66.295c-12.028-2.802-20.89-7.314-26.587-13.54-5.699-5.913-8.546-12.917-8.546-21.008zM458.268 440.011c11.394 2.49 19.94 6.536 25.637 12.138s8.546 12.295 8.546 20.075c0 7.781-3.007 14.162-9.021 19.142-5.697 4.98-14.086 9.338-25.163 13.071v-64.427z" />
<glyph unicode="&#xe92f;" glyph-name="shield" horiz-adv-x="764" d="M0 785.364c212.031 0 342.991 116.424 381.968 174.636 87.307-146.059 291.024-177.282 381.968-174.636v-436.59c0-196.862-254.646-357.209-381.968-412.774-293.102 114.308-376.771 322.812-381.968 412.774v436.59zM77.953 708.076v-351.978c4.136-72.53 70.73-240.625 304.016-332.78 101.339 44.798 304.016 174.069 304.016 332.78v351.978c-72.385-2.133-234.527 23.038-304.016 140.792-31.022-46.931-135.256-140.792-304.016-140.792zM512 542.814h-20.317v40.248c0 55.543-45.511 100.62-101.587 100.62s-101.587-45.077-101.587-100.62v-40.248h-20.317c-22.349 0-40.635-18.112-40.635-40.248v-201.239c0-22.136 18.286-40.248 40.635-40.248h243.81c22.349 0 40.635 18.112 40.635 40.248v201.239c0 22.136-18.286 40.248-40.635 40.248zM390.095 361.7c-22.349 0-40.635 18.112-40.635 40.248s18.286 40.248 40.635 40.248c22.349 0 40.635-18.112 40.635-40.248s-18.286-40.248-40.635-40.248zM453.079 542.814h-125.968v40.248c0 34.413 28.241 62.384 62.984 62.384s62.984-27.971 62.984-62.384v-40.248z" />
<glyph unicode="&#xe930;" glyph-name="menu" d="M128 192h768v85.333h-768v-85.333zM128 405.333h768v85.333h-768v-85.333zM128 704v-85.333h768v85.333h-768z" />
<glyph unicode="&#xe931;" glyph-name="bar-menu" d="M853.333 576h-682.667v-85.333h682.667v85.333zM170.667 320h682.667v85.333h-682.667v-85.333z" />
<glyph unicode="&#xe932;" glyph-name="start-solid" d="M0 960v-1024h1024v1024h-1024zM501.76 268.8l145.92 33.28 74.24-207.36-220.16 174.080zM263.68 94.72l92.16 266.24-220.16 166.4h273.92l79.36 258.56 92.16-258.56h279.040l-596.48-432.64z" />
<glyph unicode="&#xe933;" glyph-name="star-line" horiz-adv-x="1061" d="M1035.399 589.535l-854.917-617.439 132.987 379.963-313.469 237.477h389.464l113.986 370.465 132.988-370.465h398.961zM731.407 266.573l-208.976-47.495 313.468-246.978-104.492 294.473z" />
<glyph unicode="&#xe934;" glyph-name="av-timer" d="M469.333 234.667c0-23.467 19.2-42.667 42.667-42.667s42.667 19.2 42.667 42.667c0 23.467-19.2 42.667-42.667 42.667s-42.667-19.2-42.667-42.667zM469.333 832v-170.667h85.333v81.92c144.64-20.907 256-144.64 256-295.253 0-165.12-133.547-298.667-298.667-298.667s-298.667 133.547-298.667 298.667c0 71.68 25.173 137.387 67.413 188.587l231.253-231.253 60.16 60.16-290.133 290.133v-0.853c-93.44-69.973-154.027-180.907-154.027-306.773 0-212.053 171.52-384 384-384 212.053 0 384 171.947 384 384s-171.947 384-384 384h-42.667zM768 448c0 23.467-19.2 42.667-42.667 42.667s-42.667-19.2-42.667-42.667c0-23.467 19.2-42.667 42.667-42.667s42.667 19.2 42.667 42.667zM256 448c0-23.467 19.2-42.667 42.667-42.667s42.667 19.2 42.667 42.667c0 23.467-19.2 42.667-42.667 42.667s-42.667-19.2-42.667-42.667z" />
<glyph unicode="&#xe935;" glyph-name="local-post" d="M853.333 789.333h-682.667c-46.933 0-84.907-38.4-84.907-85.333l-0.427-512c0-46.933 38.4-85.333 85.333-85.333h682.667c46.933 0 85.333 38.4 85.333 85.333v512c0 46.933-38.4 85.333-85.333 85.333zM853.333 618.667l-341.333-213.333-341.333 213.333v85.333l341.333-213.333 341.333 213.333v-85.333z" />
<glyph unicode="&#xe936;" glyph-name="luggage" d="M725.333 704h-85.333v128c0 23.467-19.2 42.667-42.667 42.667h-170.667c-23.467 0-42.667-19.2-42.667-42.667v-128h-85.333c-46.933 0-85.333-38.4-85.333-85.333v-469.333c0-46.933 38.4-85.333 85.333-85.333 0-23.467 19.2-42.667 42.667-42.667s42.667 19.2 42.667 42.667h256c0-23.467 19.2-42.667 42.667-42.667s42.667 19.2 42.667 42.667c46.933 0 85.333 38.4 85.333 85.333v469.333c0 46.933-38.4 85.333-85.333 85.333zM405.333 192h-64v384h64v-384zM544 192h-64v384h64v-384zM576 704h-128v106.667h128v-106.667zM682.667 192h-64v384h64v-384z" />
<glyph unicode="&#xe937;" glyph-name="diamond" d="M106.034 542.523h161.486l149.988-327.386-311.474 327.386zM512 162.463l-174.486 380.060h348.97l-174.484-380.060zM269.020 605.538h-172.986l143.988 189.046h130.989l-101.991-189.046zM606.495 215.137l149.985 327.386h161.485l-311.47-327.386zM341.514 605.538l101.991 189.046h136.99l101.99-189.046h-340.972zM754.98 605.538l-101.99 189.046h130.99l143.985-189.046h-172.984zM825.472 844.8c-5.996 8.369-15.498 12.8-25.498 12.8h-575.951c-9.999 0-19.498-4.431-25.498-12.8l-191.984-252.062c-9.499-11.815-8.499-29.046 2-40.369l479.96-504.123c6-6.4 14.499-9.846 23.498-9.846 9.001 0 17.5 3.446 23.496 9.846l479.964 504.123c10.496 11.323 11.5 28.554 1.997 40.369l-191.985 252.062z" />
<glyph unicode="&#xe938;" glyph-name="sanitizer" d="M661.333 682.667c0 35.84 64 106.667 64 106.667s64-70.827 64-106.667c0-35.413-28.587-64-64-64s-64 28.587-64 64zM832 320c58.88 0 106.667 47.787 106.667 106.667 0 71.253-106.667 192-106.667 192s-106.667-120.747-106.667-192c0-58.88 47.787-106.667 106.667-106.667zM554.667 362.667h-85.333v85.333h-85.333v-85.333h-85.333v-85.333h85.333v-85.333h85.333v85.333h85.333v85.333zM682.667 448v-426.667h-512v426.667c0 126.72 92.16 231.68 213.333 252.16v89.173h-85.333v85.333h256c48.213 0 91.733-16.64 127.573-43.093l-61.013-61.013c-19.627 11.52-42.24 18.773-66.56 18.773h-85.333v-89.173c121.173-20.48 213.333-125.44 213.333-252.16z" />
<glyph unicode="&#xe939;" glyph-name="restore" d="M554.667 832c-212.053 0-384-171.947-384-384h-128l165.973-165.973 2.987-5.973 172.373 171.947h-128c0 165.12 133.547 298.667 298.667 298.667s298.667-133.547 298.667-298.667c0-165.12-133.547-298.667-298.667-298.667-82.347 0-157.013 33.707-210.773 87.893l-60.587-60.587c69.547-69.547 165.12-112.64 271.36-112.64 212.053 0 384 171.947 384 384s-171.947 384-384 384zM512 618.667v-213.333l182.613-108.373 30.72 51.627-149.333 88.747v181.333h-64z" />
<glyph unicode="&#xe93a;" glyph-name="update" d="M896 528.213h-289.28l116.907 120.32c-116.48 115.2-305.067 119.467-421.547 4.267-116.48-115.627-116.48-302.080 0-417.707s305.067-115.627 421.547 0c58.027 57.173 87.040 124.16 87.040 208.64h85.333c0-84.48-37.547-194.133-112.64-268.373-149.76-148.48-392.96-148.48-542.72 0-149.333 148.053-150.613 388.693-0.853 536.747s389.973 148.053 539.733 0l116.48 119.893v-303.787zM533.333 618.667v-181.333l149.333-88.747-30.72-51.627-182.613 108.373v213.333h64z" />
<glyph unicode="&#xe93b;" glyph-name="business" d="M512 661.333v170.667h-426.667v-768h853.333v597.333h-426.667zM256 149.333h-85.333v85.333h85.333v-85.333zM256 320h-85.333v85.333h85.333v-85.333zM256 490.667h-85.333v85.333h85.333v-85.333zM256 661.333h-85.333v85.333h85.333v-85.333zM426.667 149.333h-85.333v85.333h85.333v-85.333zM426.667 320h-85.333v85.333h85.333v-85.333zM426.667 490.667h-85.333v85.333h85.333v-85.333zM426.667 661.333h-85.333v85.333h85.333v-85.333zM853.333 149.333h-341.333v85.333h85.333v85.333h-85.333v85.333h85.333v85.333h-85.333v85.333h341.333v-426.667zM768 490.667h-85.333v-85.333h85.333v85.333zM768 320h-85.333v-85.333h85.333v85.333z" />
<glyph unicode="&#xe93c;" glyph-name="flight" d="M320 42.667h85.333l213.333 341.333h234.667c35.413 0 64 28.587 64 64s-28.587 64-64 64h-234.667l-213.333 341.333h-85.333l106.667-341.333h-234.667l-64 85.333h-64l42.667-149.333-42.667-149.333h64l64 85.333h234.667l-106.667-341.333z" />
<glyph unicode="&#xe93d;" glyph-name="headset_mic-24px-1" d="M512 917.333c-212.052 0-384-171.947-384-384v-298.667c0-70.827 57.173-128 128-128h128v341.333h-170.667v85.333c0 165.121 133.548 298.667 298.667 298.667 165.121 0 298.667-133.546 298.667-298.667v-85.333h-170.667v-341.333h170.667v-42.667h-298.667v-85.333h256c70.827 0 128 57.173 128 128v426.667c0 212.053-171.946 384-384 384z" />
<glyph unicode="&#xe93e;" glyph-name="headset-mic" d="M512 917.333c-212.052 0-384-171.947-384-384v-298.667c0-70.827 57.173-128 128-128h128v341.333h-170.667v85.333c0 165.121 133.548 298.667 298.667 298.667 165.121 0 298.667-133.546 298.667-298.667v-85.333h-170.667v-341.333h170.667v-42.667h-298.667v-85.333h256c70.827 0 128 57.173 128 128v426.667c0 212.053-171.946 384-384 384z" />
<glyph unicode="&#xe93f;" glyph-name="person-pin" d="M512 874.667c-212.052 0-384-171.948-384-384 0-177.921 121.173-327.254 285.439-370.774l98.561-98.559 98.561 98.559c164.266 43.52 285.439 192.853 285.439 370.774 0 212.052-171.946 384-384 384zM512 789.333c70.827 0 128-57.173 128-128s-57.173-128-128-128c-70.827 0-128 57.173-128 128s57.173 128 128 128zM512 179.2c-106.667 0-200.961 54.613-256 137.387 1.281 84.906 170.667 131.413 256 131.413 84.908 0 254.721-46.508 256-131.413-55.041-82.773-149.333-137.387-256-137.387z" />
<glyph unicode="&#xe940;" glyph-name="airport-shuttle" d="M725.333 746.667h-597.333c-46.933 0-85.333-37.974-85.333-85.333v-384h85.333c0-70.401 57.173-128 128-128s128 57.599 128 128h234.667c0-70.401 57.173-128 128-128s128 57.599 128 128h106.667v213.333l-256 256zM128 490.667v170.667h170.667v-170.667h-170.667zM256 213.333c-35.413 0-64 28.586-64 64 0 35.412 28.587 64 64 64 35.412 0 64-28.588 64-64 0-35.414-28.588-64-64-64zM554.667 490.667h-170.667v170.667h170.667v-170.667zM746.667 213.333c-35.414 0-64 28.586-64 64 0 35.412 28.586 64 64 64 35.412 0 64-28.588 64-64 0-35.414-28.588-64-64-64zM640 490.667v170.667h42.667l170.667-170.667h-213.333z" />
<glyph unicode="&#xe941;" glyph-name="directions-car" d="M807.253 703.572c-8.533 25.174-32.427 43.094-60.587 43.094h-469.333c-28.16 0-51.627-17.92-60.587-43.094l-88.747-255.572v-341.333c0-23.468 19.2-42.667 42.667-42.667h42.667c23.466 0 42.667 19.199 42.667 42.667v42.667h512v-42.667c0-23.468 19.201-42.667 42.667-42.667h42.667c23.466 0 42.667 19.199 42.667 42.667v341.333l-88.747 255.572zM277.333 277.333c-35.414 0-64 28.586-64 64 0 35.412 28.586 64 64 64 35.412 0 64-28.588 64-64 0-35.414-28.588-64-64-64zM746.667 277.333c-35.412 0-64 28.586-64 64 0 35.412 28.588 64 64 64s64-28.588 64-64c0-35.414-28.588-64-64-64zM213.333 490.667l64 192h469.333l64-192h-597.333z" />
<glyph unicode="&#xe942;" glyph-name="compare-arrows" d="M384.427 362.667h-299.093v-85.333h299.093v-128l170.24 170.667-170.24 170.667v-128zM639.573 405.333v128h299.093v85.333h-299.093v128l-170.24-170.667 170.24-170.667z" />
<glyph unicode="&#xe943;" glyph-name="support" d="M490.667 874.667c-200.107 0-362.667-162.56-362.667-362.667s162.56-362.667 362.667-362.667h21.333v-128c207.36 99.84 341.333 298.667 341.333 490.667 0 200.107-162.56 362.667-362.667 362.667zM533.333 256h-85.333v85.333h85.333v-85.333zM533.333 405.333h-85.333c0 138.667 128 128 128 213.333 0 46.933-38.4 85.333-85.333 85.333s-85.333-38.4-85.333-85.333h-85.333c0 94.293 76.373 170.667 170.667 170.667s170.667-76.373 170.667-170.667c0-106.667-128-117.333-128-213.333z" />
<glyph unicode="&#xe944;" glyph-name="chevron-down" d="M526 410l262 274q18 20 46 20t48-20l24-26q20-20 20-49t-20-49l-308-322-24-26q-20-20-48-20t-48 20l-22 26h-2l-306 322q-20 20-20 49t20 49l24 26q18 20 46 20t48-20l260-274z" />
<glyph unicode="&#xe945;" glyph-name="chevron-up" d="M498 486l-262-274q-18-20-46-20t-48 20l-24 26q-20 20-20 49t20 49l308 322 24 26q20 20 48 20t48-20l22-26h2l306-322q20-20 20-49t-20-49l-24-26q-18-20-46-20t-48 20l-260 274z" />
<glyph unicode="&#xe946;" glyph-name="swap" d="M768 789.333l-170.667-170.667h128v-298.667c0-46.933-38.4-85.333-85.333-85.333s-85.333 38.4-85.333 85.333v298.667c0 94.293-76.373 170.667-170.667 170.667s-170.667-76.373-170.667-170.667v-298.667h-128l170.667-170.667 170.667 170.667h-128v298.667c0 46.933 38.4 85.333 85.333 85.333s85.333-38.4 85.333-85.333v-298.667c0-94.293 76.373-170.667 170.667-170.667s170.667 76.373 170.667 170.667v298.667h128l-170.667 170.667z" />
<glyph unicode="&#xe947;" glyph-name="commute" d="M512 789.333h-298.667c-70.827 0-128-57.173-128-128v-341.333c0-70.827 57.173-128 128-128l-42.667-42.667v-42.667h42.667l85.333 86.613 85.333-1.28v213.333h-213.333v299.52l384-0.853v-85.333h85.333v42.667c0 70.827-57.173 128-128 128zM213.333 362.667c23.467 0 42.667-19.2 42.667-42.667s-19.2-42.667-42.667-42.667c-23.467 0-42.667 19.2-42.667 42.667s19.2 42.667 42.667 42.667zM877.653 547.84c-5.973 17.067-22.187 28.16-41.387 28.16h-306.773c-19.627 0-35.413-11.093-41.813-28.16l-61.013-175.36 0.427-235.093c0-16.213 13.227-30.72 29.44-30.72h26.453c16.213 0 29.013 16.213 29.013 32.427v52.907h341.333v-52.907c0-16.213 13.227-32.427 29.44-32.427h26.027c16.213 0 29.44 14.507 29.44 30.72l0.427 58.453v176.64l-61.013 175.36zM529.493 533.333h306.773l43.947-128h-394.667l43.947 128zM512 277.333c-23.467 0-42.667 19.2-42.667 42.667s19.2 42.667 42.667 42.667c23.467 0 42.667-19.2 42.667-42.667s-19.2-42.667-42.667-42.667zM853.333 277.333c-23.467 0-42.667 19.2-42.667 42.667s19.2 42.667 42.667 42.667c23.467 0 42.667-19.2 42.667-42.667s-19.2-42.667-42.667-42.667z" />
<glyph unicode="&#xe948;" glyph-name="child-care" d="M618.667 458.667c29.457 0 53.333 23.876 53.333 53.333 0 29.455-23.876 53.333-53.333 53.333s-53.333-23.878-53.333-53.333c0-29.457 23.876-53.333 53.333-53.333zM405.333 458.667c29.457 0 53.333 23.876 53.333 53.333 0 29.455-23.876 53.333-53.333 53.333-29.455 0-53.333-23.878-53.333-53.333 0-29.457 23.878-53.333 53.333-53.333zM978.773 419.84c1.707 8.96 2.56 18.347 2.56 28.16s-0.853 19.2-2.56 28.16c-10.667 64.427-58.027 116.907-119.893 135.253-22.613 47.787-54.613 89.6-93.44 124.16-67.413 60.16-156.16 96.427-253.44 96.427s-186.027-36.267-253.44-96.427c-39.253-34.56-71.253-76.8-93.44-124.16-61.867-18.347-109.227-70.4-119.893-135.253-1.707-8.96-2.56-18.347-2.56-28.16s0.853-19.2 2.56-28.16c10.667-64.427 58.027-116.907 119.893-135.253 22.187-47.36 54.187-89.173 92.587-123.307 67.413-60.587 156.587-97.28 254.293-97.28s186.88 36.693 254.72 97.28c38.4 34.133 70.4 76.373 92.587 123.307 61.44 18.347 108.8 70.4 119.467 135.253zM810.667 362.667c-4.267 0-8.107 0.853-12.373 1.28-8.533-28.587-20.907-55.040-36.693-79.36-53.333-81.493-145.067-135.253-249.6-135.253s-196.267 53.76-249.6 135.253c-15.787 24.32-28.16 50.773-36.693 79.36-4.267-0.427-8.107-1.28-12.373-1.28-46.933 0-85.333 38.4-85.333 85.333s38.4 85.333 85.333 85.333c4.267 0 8.107-0.853 12.373-1.28 8.533 28.587 20.907 55.040 36.693 79.36 53.333 81.493 145.067 135.253 249.6 135.253s196.267-53.76 249.6-135.253c15.787-24.32 28.16-50.773 36.693-79.36 4.267 0.427 8.107 1.28 12.373 1.28 46.933 0 85.333-38.4 85.333-85.333s-38.4-85.333-85.333-85.333zM320 362.667c32.427-75.52 106.24-128 192-128s159.573 52.48 192 128h-384z" />
<glyph unicode="&#xe949;" glyph-name="door" d="M853.333 149.333v597.333c0 46.933-38.4 85.333-85.333 85.333h-224v-682.667h-64v682.667h-224c-46.933 0-85.333-38.4-85.333-85.333v-597.333h-42.667v-85.333h768v85.333h-42.667zM426.667 405.333h-85.333v85.333h85.333v-85.333zM682.667 405.333h-85.333v85.333h85.333v-85.333z" />
<glyph unicode="&#xe94a;" glyph-name="close-fullscreen" d="M938.667 814.507l-225.707-225.707 140.373-140.8h-341.333v341.333l140.373-140.373 226.133 225.707 60.16-60.16zM145.493 21.333l225.707 225.707 140.8-140.373v341.333h-341.333l140.373-140.373-225.707-226.133 60.16-60.16z" />
<glyph unicode="&#xe94b;" glyph-name="map" d="M874.667 832l-6.827-1.28-227.84-88.32-256 89.6-240.64-81.067c-8.96-2.987-15.36-10.667-15.36-20.48v-645.12c0-11.947 9.387-21.333 21.333-21.333l6.827 1.28 227.84 88.32 256-89.6 240.64 81.067c8.96 2.987 15.36 10.667 15.36 20.48v645.12c0 11.947-9.387 21.333-21.333 21.333zM640 149.333l-256 90.027v507.307l256-90.027v-507.307z" />
<glyph unicode="&#xe94c;" glyph-name="people" d="M682.667 490.667c70.827 0 127.573 57.173 127.573 128s-56.747 128-127.573 128c-70.827 0-128-57.173-128-128s57.173-128 128-128zM341.333 490.667c70.827 0 127.573 57.173 127.573 128s-56.747 128-127.573 128c-70.827 0-128-57.173-128-128s57.173-128 128-128zM341.333 405.333c-99.413 0-298.667-49.92-298.667-149.333v-106.667h597.333v106.667c0 99.413-199.253 149.333-298.667 149.333zM682.667 405.333c-12.373 0-26.453-0.853-41.387-2.133 49.493-35.84 84.053-84.053 84.053-147.2v-106.667h256v106.667c0 99.413-199.253 149.333-298.667 149.333z" />
<glyph unicode="&#xe94d;" glyph-name="coronavirus" d="M906.667 512c-17.493 0-32-14.507-32-32h-65.707c-6.4 58.453-29.44 112.213-64.853 155.733l46.507 46.507 0.427-0.427c12.373-12.373 32.853-12.373 45.227 0s12.373 32.853 0 45.227l-45.227 45.227c-12.373 12.373-32.853 12.373-45.227 0s-12.373-32.427-0.427-44.8l-46.507-46.507c-43.52 34.987-96.853 58.027-155.307 64.427v65.28h0.427c17.493 0 32 14.507 32 32s-14.507 32-32 32h-64c-17.493 0-32-14.507-32-32s14.080-31.573 31.573-32v-66.133c-58.453-5.973-111.787-29.44-155.307-64.427l-46.507 46.507 0.427 0.427c12.373 12.373 12.373 32.853 0 45.227s-32.853 12.373-45.227 0l-45.227-45.227c-12.373-12.373-12.373-32.853 0-45.227s32.427-12.373 44.8-0.427l46.507-46.507c-34.987-43.52-58.027-96.427-64-154.88h-65.707c0 17.493-14.507 32-32 32s-32-14.507-32-32v-64c0-17.493 14.507-32 32-32s32 14.507 32 32h65.707c6.4-58.453 29.44-111.36 64-154.88l-46.507-46.507c-12.373 12.373-32.427 11.947-44.8-0.427s-12.373-32.853 0-45.227l45.227-45.227c12.373-12.373 32.853-12.373 45.227 0s12.373 32.853 0 45.227l-0.427 0.427 46.507 46.507c43.52-34.987 96.427-58.027 154.88-64.427v-66.133c-17.493-0.427-31.573-14.507-31.573-32s14.507-32 32-32h64c17.493 0 32 14.507 32 32s-14.507 32-32 32h-0.427v65.707c58.453 5.973 111.787 29.44 155.307 64.427l46.507-46.507c-12.373-12.373-11.947-32.427 0.427-44.8s32.853-12.373 45.227 0l45.227 45.227c12.373 12.373 12.373 32.853 0 45.227s-32.853 12.373-45.227 0l-0.427-0.427-46.507 46.507c34.987 43.52 58.453 96.853 64.853 155.733h65.707c0-17.493 14.507-32 32-32s32 14.507 32 32v64c0.427 17.067-14.080 31.573-31.573 31.573zM586.667 618.667c23.467 0 42.667-19.2 42.667-42.667s-19.2-42.667-42.667-42.667c-23.467 0-42.667 19.2-42.667 42.667s19.2 42.667 42.667 42.667zM512 405.333c-23.467 0-42.667 19.2-42.667 42.667s19.2 42.667 42.667 42.667c23.467 0 42.667-19.2 42.667-42.667s-19.2-42.667-42.667-42.667zM437.333 618.667c23.467 0 42.667-19.2 42.667-42.667s-19.2-42.667-42.667-42.667c-23.467 0-42.667 19.2-42.667 42.667s19.2 42.667 42.667 42.667zM362.667 405.333c-23.467 0-42.667 19.2-42.667 42.667s19.2 42.667 42.667 42.667c23.467 0 42.667-19.2 42.667-42.667s-19.2-42.667-42.667-42.667zM437.333 277.333c-23.467 0-42.667 19.2-42.667 42.667s19.2 42.667 42.667 42.667c23.467 0 42.667-19.2 42.667-42.667s-19.2-42.667-42.667-42.667zM586.667 277.333c-23.467 0-42.667 19.2-42.667 42.667s19.2 42.667 42.667 42.667c23.467 0 42.667-19.2 42.667-42.667s-19.2-42.667-42.667-42.667zM618.667 448c0 23.467 19.2 42.667 42.667 42.667s42.667-19.2 42.667-42.667c0-23.467-19.2-42.667-42.667-42.667s-42.667 19.2-42.667 42.667z" />
<glyph unicode="&#xe94e;" glyph-name="train" d="M511.2 855.2v0 0zM694.4 165.6c48 8 96 58.4 96 119.2v448.8c0 63.2-53.6 121.6-125.6 121.6h-309.6c-72.8 0-125.6-58.4-125.6-121.6v-448.8c0-61.6 48-112 96-119.2l-144.8-217.6h83.2l103.2 152h283.2l103.2-152h83.2l-142.4 217.6zM428.8 808.8c0 11.2 9.6 20 20.8 20h121.6c11.2 0 20.8-9.6 20.8-20v-36c0-11.2-8.8-20.8-20.8-20.8h-121.6c-11.2 0-20.8 9.6-20.8 20.8v36zM352.8 230.4c-30.4 0-55.2 24.8-55.2 55.2s24.8 55.2 55.2 55.2c30.4 0 55.2-24.8 55.2-55.2s-24.8-55.2-55.2-55.2zM510.4 522.4v0h-150.4c-34.4 0-63.2 24-62.4 62.4v80.8c0 33.6 21.6 63.2 62.4 63.2h300.8c40.8 0 62.4-29.6 62.4-63.2v-80.8c0-39.2-28-62.4-62.4-62.4h-150.4zM612 285.6c0 30.4 24.8 55.2 55.2 55.2s55.2-24.8 55.2-55.2c0-30.4-24.8-55.2-55.2-55.2-31.2 0-55.2 24.8-55.2 55.2zM499.2 903.2c0-19.44-15.76-35.2-35.2-35.2s-35.2 15.76-35.2 35.2c0 19.44 15.76 35.2 35.2 35.2s35.2-15.76 35.2-35.2zM592 903.2c0-19.44-15.76-35.2-35.2-35.2s-35.2 15.76-35.2 35.2c0 19.44 15.76 35.2 35.2 35.2s35.2-15.76 35.2-35.2z" />
<glyph unicode="&#xe94f;" glyph-name="ship" d="M521.357 537.576l251.847-56.052-23.626 149.629c-2.465 15.608-15.896 27.117-31.699 27.159l-70.215 0.188-11.494 142.012c-1.35 16.676-15.256 29.538-31.987 29.582l-47.793 0.129 0.222 82.367c0.067 24.484-19.729 44.388-44.215 44.454-0.042 0-0.080 0-0.122 0-24.428 0-44.266-19.771-44.332-44.215l-0.222-82.367-46.525 0.124c-16.732 0.047-30.706-12.74-32.145-29.412l-12.256-141.95-69.295 0.186c-15.801 0.042-29.296-11.394-31.843-26.989l-24.641-150.8 251.067 55.95c6.344 1.414 12.928 1.416 19.274 0.002zM191.847 156.901c18.76-7.094 36.543-16.661 52.918-28.587 38.576 28.095 84.916 43.257 133.618 43.257 48.699 0 95.042-15.165 133.618-43.257 38.576 28.095 84.916 43.257 133.618 43.257 48.699 0 95.036-15.162 133.613-43.253 16.386 11.944 34.178 21.527 52.942 28.631l61.324 169.804c3.141 8.698 2.387 18.328-2.066 26.432-4.456 8.104-12.181 13.899-21.207 15.909l-358.492 79.789-357.966-79.771c-9.024-2.011-16.75-7.807-21.203-15.912s-5.205-17.732-2.064-26.428l61.348-169.872zM1011.014 42.31c-26.219 26.219-61.080 40.659-98.159 40.659s-71.939-14.44-98.159-40.659c-9.472-9.472-22.065-14.688-35.461-14.688s-25.989 5.216-35.459 14.688c-27.064 27.062-62.614 40.593-98.161 40.593s-71.095-13.531-98.157-40.593c-9.472-9.472-22.065-14.688-35.461-14.688s-25.989 5.216-35.459 14.688c-27.064 27.062-62.614 40.593-98.161 40.593s-71.095-13.531-98.157-40.593c-9.776-9.776-22.619-14.664-35.459-14.664-12.844 0-25.683 4.888-35.461 14.664-27.062 27.062-62.611 40.593-98.159 40.593s-71.095-13.531-98.157-40.593c-17.315-17.315-17.315-45.385 0-62.698 17.313-17.313 45.383-17.315 62.698 0 9.776 9.776 22.617 14.664 35.461 14.664s25.683-4.888 35.461-14.666c27.062-27.062 62.609-40.593 98.157-40.593s71.097 13.531 98.159 40.593c9.776 9.778 22.619 14.666 35.461 14.666s25.683-4.888 35.459-14.666c26.217-26.217 61.080-40.657 98.157-40.657 37.079 0 71.939 14.44 98.159 40.659 9.776 9.776 22.619 14.664 35.461 14.664s25.683-4.888 35.459-14.666c26.217-26.217 61.080-40.657 98.157-40.657 37.079 0 71.939 14.44 98.159 40.659 9.472 9.47 22.065 14.688 35.461 14.688s25.989-5.218 35.461-14.688c17.315-17.313 45.383-17.315 62.698 0 17.317 17.313 17.317 45.385 0.002 62.698z" />
<glyph unicode="&#xe950;" glyph-name="filters-1" horiz-adv-x="1536" d="M682.667-64h170.667c46.933 0 85.333 38.4 85.333 85.333s-38.4 85.333-85.333 85.333h-170.667c-46.933 0-85.333-38.4-85.333-85.333s38.4-85.333 85.333-85.333zM0 874.667c0-46.933 38.4-85.333 85.333-85.333h1365.333c46.933 0 85.333 38.4 85.333 85.333s-38.4 85.333-85.333 85.333h-1365.333c-46.933 0-85.333-38.4-85.333-85.333zM341.333 362.667h853.333c46.933 0 85.333 38.4 85.333 85.333s-38.4 85.333-85.333 85.333h-853.333c-46.933 0-85.333-38.4-85.333-85.333s38.4-85.333 85.333-85.333z" />
<glyph unicode="&#xe951;" glyph-name="circle-full" d="M1024 448c0-282.77-229.23-512-512-512s-512 229.23-512 512c0 282.77 229.23 512 512 512s512-229.23 512-512z" />
<glyph unicode="&#xe952;" glyph-name="circle-line" d="M512 960c-282.624 0-512-229.376-512-512s229.376-512 512-512c282.624 0 512 229.376 512 512s-229.376 512-512 512zM512 38.4c-226.304 0-409.6 183.296-409.6 409.6s183.296 409.6 409.6 409.6c226.304 0 409.6-183.296 409.6-409.6s-183.296-409.6-409.6-409.6z" />
<glyph unicode="&#xe953;" glyph-name="clock-1" d="M512 960c-281.6 0-512-230.4-512-512s230.4-512 512-512c281.6 0 512 230.4 512 512s-230.4 512-512 512zM693.76 253.44l-208.896 128.512c-15.36 9.216-24.576 25.6-24.576 43.52v240.128c0.512 20.992 17.92 38.4 38.912 38.4s38.4-17.408 38.4-38.4v-227.84l196.608-118.272c18.432-11.264 24.576-35.328 13.312-53.76-11.264-17.92-35.328-23.552-53.76-12.288z" />
<glyph unicode="&#xf009;" glyph-name="chevron-left" d="M460 464l264-254q20-18 20-45t-20-47l-24-22q-20-20-48-20t-48 20l-310 298h-2l-24 24q-20 18-20 45t20 47l24 22 2 2 310 296q20 20 48 20t48-20l24-22q20-20 20-47t-20-45l-264-252z" />
<glyph unicode="&#xf010;" glyph-name="chevron-right" d="M550 448l-274 260q-20 20-20 48t20 48l26 22q20 20 49 20t49-20l322-306 26-24q20-20 20-48t-20-48l-26-24-322-308q-20-18-49-18t-49 18l-26 24q-20 20-20 48t20 48l274 260z" />
<glyph unicode="&#xf016;" glyph-name="users" d="M292 672h4q18 0 38-3t51-11 51-28 20-50v-202q-2 0-1-5t-2-14-7-18-15-17-29-12l-34-312h-152l-34 312q-26 6-39 22t-13 30l-2 14v202q0 30 20 50t51 28 51 11 38 3h4zM294 692q-42 0-72 30t-30 72 30 72 72 30 72-30 30-72-30-72-72-30zM710 692q-42 0-72 30t-30 72 30 72 72 30 72-30 30-72-30-72-72-30zM704 356v-356q-64-2-64 0l-40 228-88 14q38 146 80 336 4 42 32 65t54 27l26 2v-316zM704 356v-356q64-2 64 0l40 228 88 14q-38 146-80 336-4 42-32 65t-54 27l-26 2v-316z" />
<glyph unicode="&#xf018;" glyph-name="bed-light" d="M0 736h94v-318h836v228h94v-454h-94v136h-836v-136h-94v544zM372 464v136h512v-136h-512zM232 464q-24 0-46 12t-34 33-12 45q0 38 27 65t66 27 66-27 27-64-27-64-67-27z" />
<glyph unicode="&#xf022;" glyph-name="cafe" d="M736 368q18-32 60-32 28 0 48 18t20 44q0 18-9 32t-25 22-34 8q-28 0-48-16-4-40-12-76zM368 168q-102 100-102 242 0 74 6 106h474q2-14 2-28 8 2 23 18t25 16q56 0 97-36t41-88q0-24-11-47t-30-40-44-27-53-10q-12 0-42-13t-44-5q-22-50-60-88h-282zM60 128q0 6 2 10h892q2-4 2-10 0-82-448-82t-448 82zM382 562q2 2-1 12t4 30 18 41 42 44 75 37q46 18 69 60t23 76v34q2-6 6-16t8-39-1-54-25-54-58-47q-44-22-61-53t-11-51l4-20h-92zM566 562v1t1 6 3 9l11 22t8 12 12 12 16 11 19 9q20 8 31 30t13 38v18q14-68-22-106-16-18-22-33t-4-23l4-6h-70z" />
<glyph unicode="&#xf023;" glyph-name="dlls" d="M764 290q-8-70-64-114-52-40-134-46v-50q0-22-16-36-22-20-50-8t-28 44v54q-12 2-24 6-70 18-114 70-24 28-36 58-4 10-6 18-4 10-4 16-2 14 6 26 14 28 46 26 30-4 40-32 0-2 2-8t2-10q4-8 8-14 8-16 20-26 24-24 60-34v186q-82 22-122 54-28 22-42 50-14 30-16 68 0 36 16 68 12 30 38 52 48 46 126 56v52q0 22 16 36 24 20 52 8 26-12 26-44v-50l20-4q76-14 122-60 24-22 38-54 4-8 6-16 4-12 4-18 2-14-4-26-12-28-44-28-30 2-42 30 0 4-2 9t-2 7l-8 16q-10 12-22 22-26 18-66 26v-178q52-12 82-24 70-28 98-76v-2q24-44 18-100zM656 354q-8 10-24 18-24 12-66 22v-170q72 8 96 50 14 24 8 54-4 14-14 26zM398 626q-8-12-10-30t4-32q4-12 20-24 12-8 30-16 14-4 30-10v156q-52-12-74-44z" />
<glyph unicode="&#xf025;" glyph-name="suitecase" d="M412 374h168v-22q0-16 12-29t30-13h42q12 0 21 6t15 16 6 20v22h126v-168q0-34-25-59t-59-25h-504q-34 0-59 25t-25 59v168h126v-22q0-16 12-29t30-13h42q8 0 16 4t14 9 9 13 3 16v22zM244 604h84v84q0 14 4 27t12 23 18 18 23 12 27 4h168q34 0 59-24t25-60v-84h84q34 0 59-24t25-60v-104h-672v104q0 36 25 60t59 24zM592 604v96h-192v-96h192z" />
<glyph unicode="&#xf035;" glyph-name="done-solid" d="M458 412q-12-12-24 0l-62 58q-22 22-44 0l-30-30q-24-22 0-44l132-130q0-2 2-2 24-22 44 2l252 290q20 24-2 44l-32 32h-2q-24 22-44-2zM512 896v0q186 0 317-131t131-317-131-317-317-131-317 131-131 317 131 317 317 131z" />
<glyph unicode="&#xf042;" glyph-name="love" d="M548 682q40 40 98 40t98-40q46-46 46-111t-46-111l-210-210q-22-24-46 0l-208 210q-46 46-46 111t46 111q40 40 97 40t99-40l36-38zM920 354q28 8 52-6t32-42q8-30-8-57t-46-37l-142-38q-14-4-18 12l-38 140q-4 16-2 31t9 28 20 22 27 13q28 8 52-6t32-42l6-24zM86 336h26l-2 24q0 30 20 49t48 19q32 0 55-22t23-54v-146q0-16-16-16h-146q-20 0-38 11t-28 28-10 39q0 28 20 48t48 20z" />
<glyph unicode="&#xf046;" glyph-name="disabled" d="M480 38q46 0 88 16t75 44 55 66l40-62q-30-40-69-69t-88-45-101-16q-132 0-226 93t-94 227q0 78 36 146t96 112v-90q-66-72-66-170 0-104 74-178t180-74zM419 750q-35 0-59 25t-24 59 24 59 59 25 60-25 25-59-25-59-60-25zM858 174q10-18 5-38t-23-30q-18-12-37-6t-29 24l-94 176h-302q-20 0-34 13t-14 33v296q0 38 26 64t63 26 63-26 26-64v-56h114q20 0 34-14t14-33-14-33-34-14h-114v-48h178q26-2 38-24z" />
<glyph unicode="&#xf052;" glyph-name="ground" d="M512 64q160 0 272 113t112 271q0 98-46 184 0-4-1-13t-1-14v-17q2-38-62-72-26-14-28-27t14-57q14-38-33-123t-79-107q-24-14-32 30l-6 44v50l-8 58-12 48-40 44q-80 32-114 40-28 6-23 41t35 49q18 8 29 5t15 4 0 39q-2 24-15 37t-23 14-32-1-26-2q-20 0-27-17t-21-85q-4-14-10-19t-12-1-11 9-7 9q-4 6-6 27t-4 41l-2 18-30-54q-4-20-56-38-32-12-35 17t11 59q-70-100-70-220 0-48 12-92 12 92 32 84 10-8 28-19t30-21q6-8 35-19t45-21 2-22q-36-34-50-58-14-32-34-90 114-126 284-126zM512 896q122 0 225-60t163-163 60-225q0-186-131-317t-317-131-317 131-131 317 131 317 317 131z" />
<glyph unicode="&#xf053;" glyph-name="edit" d="M88 26l40 220 180-178zM856 878l80-78q24-24 24-57t-24-55l-76-76-180 178 90 88q18 18 43 18t43-18zM814 566l-456-450-180 178 454 450z" />
<glyph unicode="&#xf054;" glyph-name="braile" d="M96 662q0 30 22 52t52 22 52-22 22-52-22-52-52-22-52 21-22 53zM96 456q0 30 22 52t52 22 52-22 22-52-22-52-52-22q-14 0-28 5t-24 15-16 24-6 30zM96 250q0 30 22 52t52 22 52-22 22-52-22-52-52-22-52 21-22 53zM298 250q0 30 22 52t52 22 52-22 22-52-22-52-52-22q-20 0-37 9t-27 26-10 39zM454 662q0-20-10-37t-27-27-37-10q-30 0-52 21t-22 53q0 18 10 36t28 28 36 10q30 0 52-22t22-52zM888 408q10-10 0-26 44-56 40-126t-52-120q-40-42-95-53t-103 9q-22-14-44-8l-140 34q-20 4-31 21t-9 37q4 18 21 28t37 6l56-16q-4 12-4 38-4 0-12 10l-198 210q-18 26-4 38l14 14q12 14 34-8l184-194q4 10 22 36l-100 104q-8 16 0 32l12 16q4 8 12 8t14-8l102-104q4 4 15 13t15 13l-74 78q-16 16 0 32l12 12q16 16 32 0l86-92q8 0 19 3t17 3l-48 52q-16 14 0 30l12 14q16 14 32 0z" />
<glyph unicode="&#xf057;" glyph-name="times" d="M882 684l-206-204q-12-14-12-32t12-32l206-204q14-16 14-37t-16-35l-60-60q-14-16-35-16t-37 14l-204 206q-14 12-32 12t-32-12l-204-206q-16-14-37-14t-35 16l-60 60q-16 14-16 35t14 37l206 204q12 14 12 32t-12 32l-206 204q-14 16-14 37t16 35l60 60q14 16 35 16t37-14l204-206q14-12 32-12t32 12l204 206q16 14 37 14t35-16l60-60q16-14 16-35t-14-37z" />
<glyph unicode="&#xf058;" glyph-name="salon" d="M229 190q-27 0-45 19t-18 45 18 45 45 19 45-19 18-45-18-45-45-19zM150 172h158q20 0 33-14t13-32v-52h-48v-60h-154v60h-50v52q0 8 4 17t10 15 15 10 19 4zM512 190q-26 0-45 19t-19 45 19 45 45 19 45-19 19-45-19-45-45-19zM432 172h160q18 0 32-14t14-32v-52h-48v-60h-154v60h-50v52q0 12 6 23t17 17 23 6zM795 190q-27 0-45 19t-18 45 18 45 45 19 45-19 18-45-18-45-45-19zM716 172h158q20 0 34-14t14-32v-52h-50v-60h-154v60h-48v52q0 18 13 32t33 14zM142 892h740q12 0 23-6t17-17 6-23v-284h-130l-156 82-32-32 160-108v-104h-628q-18 0-32 14t-14 32v400q0 20 14 33t32 13zM788 646q0-26 19-44t45-18 44 18 18 44-18 45-44 19-45-19-19-45z" />
<glyph unicode="&#xf059;" glyph-name="group" d="M206 552q-26 0-48 13t-35 35-13 48q0 38 28 66t68 28q26 0 48-13t34-34 12-47q0-40-27-68t-67-28zM278 270q0 64 69 110t165 46 165-46 69-110v-40q0-32-23-55t-55-23h-312q-32 0-55 23t-23 55v40zM396 595q0 49 35 84t84 35 84-35 35-84-35-83-84-34-84 34-35 83zM823 552q-39 0-67 28t-28 68q0 26 13 48t35 34 48 12q38 0 66-28t28-67-28-67-67-28zM820 512q78 0 133-37t55-89v-30q0-26-18-44t-44-18h-156q-16 100-136 150 52 68 166 68zM370 444q-120-50-136-150h-156q-26 0-44 18t-18 44v30q0 52 55 89t133 37q114 0 166-68z" />
<glyph unicode="&#xf061;" glyph-name="filters" d="M528 676q34 60 103 60t103-60h160q8 0 16-4t13-11 5-15v-58q0-12-10-21t-24-9h-160q-34-60-103-60t-103 60h-398q-14 0-24 9t-10 21v58q0 12 10 21t24 9h398zM290 320q34 60 103 60t103-60h398q14 0 24-9t10-21v-58q0-6-3-12t-7-10-11-6-13-2h-398q-34-60-103-60t-103 60h-160q-14 0-24 8t-10 22v58q0 12 10 21t24 9h160z" />
<glyph unicode="&#xf063;" glyph-name="dinner" d="M742 838l2-750q0-24-12-39t-33-15-34 16-13 38v324q-36 0-49 20t-15 88q0 42 9 94t27 103 49 86 69 35zM342 600h114q24 0 41-14t17-34v-46q0-20-17-34t-41-14h-114q-16 0-29 7t-21 17-8 24v46q0 20 17 34t41 14zM400 600h-24q22 0 46-13t24-29v-484q0-16-14-28t-32-12q-14 0-24 5t-16 15-6 20v484q0 18 13 30t33 12v0zM284 804h46v-252h-46v252zM376 804h46v-204h-46v204zM468 804h46v-252h-46v252z" />
<glyph unicode="&#xf065;" glyph-name="bar" d="M746 550q36 0 61-26t25-62v-178q0-36-25-62t-61-26h-80v-68q0-18-14-32t-32-14h-344q-20 0-33 14t-13 32v438q-38 32-38 80 0 22 8 42t23 34 34 23 41 9h6q6 12 15 23t21 19 26 12 28 4 26-2q36 32 84 32 42 0 75-25t43-65q38-8 62-37t24-67q0-54-42-86v-12h80zM602 600q20 0 34 14t14 34-14 33-34 13h-2q-14 0-22 8t-10 20q0 26-19 44t-45 18q-34 0-52-26-16-22-38-10-10 6-20 6t-19-5-14-14-7-19q0-14-14-22-12-8-26-2-6 2-16 2-20 0-34-13t-14-33q0-26 22-40v-102q0-8 4-15t11-11 15-4 15 4 11 11 4 15v94h270zM752 284v178q0 8-6 8h-80v-192h80q6 0 6 6z" />
<glyph unicode="&#xf066;" glyph-name="buffet" d="M438 856q14 0 14-18v-174l2-2h-2v-54q0-18-23-42t-43-26v-482q0-16-15-28t-33-12q-34 0-34 40v482q-18 2-33 25t-15 43v230q0 18 14 18 18 0 18-18v-142h2q2-14 24-14t24 16v140q0 18 16 18t16-18v-140q2-16 22-16 24 0 26 14h2v142q0 6 2 10t7 6 9 2zM778 698q0-40-23-71t-59-45v-516q0-22-10-36t-28-14-31 14-13 36v520q-32 14-53 44t-21 68q0 56 35 119t82 63 84-63 37-119z" />
<glyph unicode="&#xf068;" glyph-name="souvenirs" d="M894 658q14 0 24-10t10-22v-172q0-8-4-16t-12-12-18-4h-8v-376q0-8-5-15t-13-12-16-5h-678q-14 0-23 10t-9 22v376h-10q-14 0-24 9t-10 23v172q0 12 10 22t24 10h254q-2 0-16 8h264q-2-2 1-5t-1-3h260zM208 450v-372h244v372h-244zM578 450v-372h240v372h-240zM660 658h-276q-124 66-136 136-10 54 46 98 36 28 72 28 100 0 156-192 44 140 128 140 34 0 66-24 48-32 42-76-8-54-98-110zM650 804q-18 0-37-34t-33-84q106 54 110 88 2 10-14 20-14 10-26 10zM314 804q10-50 150-116-18 70-45 119t-53 49q-12 0-28-12-26-20-24-40z" />
<glyph unicode="&#xf069;" glyph-name="gym" d="M874 486h30q22 0 39-12t17-28v-8q0-18-17-30t-39-12h-34v-152q0-10-8-18t-18-8h-64v-18q0-12-7-20t-19-8h-36q-12 0-19 8t-7 20v196h-360v-196q0-12-7-20t-19-8h-36q-12 0-19 8t-7 20v18h-64q-10 0-18 8t-8 18v152h-34q-22 0-39 12t-17 30v8q0 16 17 28t39 12h34v152q0 8 3 14t9 10 14 4h64v18q0 6 3 13t9 10 14 3h36q12 0 19-8t7-18v-198h360v198q0 10 7 18t19 8h36q12 0 19-8t7-18v-18h64q10 0 18-8t8-20v-152h4z" />
<glyph unicode="&#xf071;" glyph-name="suitecase-mini" d="M384 362v480q0 14 9 23t23 9h192q14 0 23-9t9-23v-480h96q14 0 23-9t9-23v-276q0-14-9-23t-23-9h-448q-14 0-23 9t-9 23v276q0 14 9 23t23 9h96zM426 278v-44h172v44h-172zM342 64h84v-54q0-8-4-15t-11-12-17-5h-20q-14 0-23 10t-9 22v54zM598 64h84v-54q0-6-2-12t-6-10-10-7-14-3h-20q-14 0-23 10t-9 22v54zM426 832v-470h172v470h-172z" />
<glyph unicode="&#xf072;" glyph-name="hot" d="M360-16q-4 4-8 11t-11 30-10 49 5 64 28 78 35 72 22 50 11 31 4 17v4-146q12 20 29 52t44 102 25 108q8-6 21-18t42-57 45-99 16-148-32-200q10 4 26 12t56 40 70 69 53 102 19 138-47 176-129 217q20-102 0-144-4-12-8 8-28 116-54 164-62 114-180 146 4-8 9-22t8-57-5-89-41-111-93-127l-3 3t-7 10-8 16-8 22-5 27 0 32 7 34q-6-10-17-27t-37-70-44-105-25-121 6-128 61-117 130-98v0z" />
<glyph unicode="&#xf074;" glyph-name="info-line" d="M512 66q156 0 268 112t112 270q0 156-112 268t-268 112q-104 0-192-51t-139-139-51-190q0-158 112-270t270-112zM512 896q186 0 317-131t131-317-131-317-317-131-317 131-131 317 131 317 317 131zM610 230q12 0 21-10t9-24q0-16-8-26-10-12-22-12h-196q-12 0-21 10t-9 26 8 26q10 10 22 10h26v200h-26q-12 0-21 10t-9 25 8 25q10 12 22 12h128q16 0 29-12t13-30v-230h26zM504 568q-34 0-59 25t-25 60 25 60 59 25q36 0 60-25t24-60-24-60-60-25z" />
<glyph unicode="&#xf075;" glyph-name="info-solid" d="M632 170q-10-12-22-12h-196q-12 0-21 10t-9 26 8 26q10 10 22 10h26v200h-26q-12 0-21 10t-9 25 8 25q10 12 22 12h128q12 0 21-6t15-15 6-21v-230h26q12 0 21-10t9-24q0-16-8-26zM504 738q36 0 60-25t24-60-24-60-60-25q-34 0-59 25t-25 60 25 60 59 25zM512 896q-186 0-317-131t-131-317 131-317 317-131 317 131 131 317q0 92-35 175t-95 143-143 95-175 35v0z" />
<glyph unicode="&#xf077;" glyph-name="jacuzzi" d="M500 532h-106q4 2 0 16t4 41 21 55 49 59 86 53q24 10 44 26t30 34 18 38 10 37 4 31 0 22v8l6-18t9-45 0-63-28-66-67-60q-32-18-52-42t-25-45-6-40 1-29zM608 532q0 8 3 22t23 44 52 46q16 6 27 18t15 23 7 21 3 16l2 6q14-62-26-112-20-22-26-43t-4-31l2-10h-78zM480 348q242-22 454 6-8-168-108-226l1-1t1-3q14-26 10-54t-22-42-43-7-41 35q-10 16-14 36-58-8-216-8-102 0-184 24 0-28-16-52-16-28-41-35t-43 7-21 42 9 54q8 14 18 26-134 80-134 242 0 10 2 26 182-52 388-70zM480 484q256-22 476 8v-70q-220-30-476-6-240 22-412 70v70q172-50 412-72z" />
<glyph unicode="&#xf088;" glyph-name="hot1" d="M366 592q30 0 51-21t21-52-21-52-51-21-52 21-22 53q0 20 10 37t27 26 37 9zM752 362q64-28 64-126 0-62-49-109t-109-47q-66 0-107 49t-41 107q0 4-1 17t0 16 2 15 3 16l7 14t11 16 16 14 24 18v142l-88-38 50-112v2l-116 32-50-120v2l-60 128-106-50v2l34 122-106 50h-2l106 46-32 118v2l106-50 60 128v2l50-120 116 32v2l-50-112 88-40v136q12 28 40 49t46 21q30 0 62-23t32-47v-304zM458 476q8 20 8 44 0 42-29 72t-71 30q-12 0-22-2l-4 2-4-4q-32-10-52-37t-20-61q0-44 29-74t73-30q62 0 90 58h2v2zM658 120q46 0 86 33t40 83q0 22-27 64t-35 62v288q0 20-18 34t-46 14q-46 0-54-40v-304q-64-78-64-118t32-78 86-38zM694 290q32-18 32-54 0-26-19-44t-45-18-44 18-18 44q0 36 32 54v290q0 10 4 17t11 11 16 4 16-4 11-11 4-17v-290z" />
<glyph unicode="&#xf090;" glyph-name="moon" d="M538 18q-170 0-290 124t-120 299 120 299 290 124q52 0 102-12-104-32-171-122t-67-204q0-142 96-241t232-99q90 0 166 48-54-100-149-158t-209-58z" />
<glyph unicode="&#xf093;" glyph-name="bell" d="M436 138h-308v88q82 62 121 140t44 144 9 126 32 102 96 58q8 32 29 49t44 18 45-16 30-49q68-12 97-55t34-105 12-130 49-146 126-136v-86q-144-2-308-2v-28q2-30-20-50t-56-20-55 19-21 51q-2 8 0 28z" />
<glyph unicode="&#xf094;" glyph-name="order" d="M482 570l-18 18q-12 12-12 28t12 26l200 210q12 12 27 12t25-12l202-210q10-10 10-26t-10-28l-18-18q-12-10-27-10t-25 10l-74 82q-12 12-19 10t-7-18v-396q0-16-9-27t-21-11h-56q-12 0-21 11t-9 27v396q0 16-7 18t-17-10l-74-82q-12-10-27-10t-25 10zM124 326q12 10 27 10t25-10l74-82q12-12 19-10t7 18v396q0 16 9 27t21 11h56q8 0 15-5t11-14 4-19v-396q0-16 7-18t17 10l76 82q10 10 25 10t25-10l18-18q12-12 12-28t-12-26l-200-210q-12-12-27-12t-25 12l-202 210q-10 10-10 26t10 28z" />
<glyph unicode="&#xf097;" glyph-name="parking" d="M512 896q122 0 225-60t163-163 60-225q0-186-131-317t-317-131-317 131-131 317 131 317 317 131zM440 634h228v66h-310v-506h312v64h-230v180h182v66h-182v130z" />
<glyph unicode="&#xf101;" glyph-name="pics" d="M212 166l204 38-216 32zM130 614l44-236 36 250zM776 734l-90-18 96-14zM876 532l14 92-584 84-22 4-2-8-58-410 572-82 34-6 2 12 8 64 8 58zM950 670v0q6-12 4-24l-42-304 12-76q4-12-4-22t-20-14h-4l-10-62q-4-28-30-28-2 0-4 2l-246 34-412-76h-6q-10 0-18 6-10 6-12 18l-94 508q-2 14 5 24t21 12l128 24 10 60q2 12 12 20t22 6l234-34 300 56q12 2 23-5t13-21l14-80 82-12q14-2 22-12zM454 478q-24 4-39 24t-11 44 23 39 44 11 39-24 11-44-23-39-44-11zM754 446l34-180 4-22-524 76q14 36 42 54t59 19 59-3 46-10l20-6 134 154 70-140z" />
<glyph unicode="&#xf102;" glyph-name="pig" d="M592 634h-108q-10 0-17 6t-7 15 7 16 17 7h108q10 0 16-7t6-15q0-6-3-11t-8-8-11-3zM298 542q-12 0-21 8t-9 20 9 21 21 9 20-9 8-21-8-20-20-8zM958 602q-10 20-30 10l-72-36q-40 82-125 132t-187 50h-50q-20 0-42-2-56 76-124 76-10 0-16-7t-6-15v-102q-78-48-120-124-22-6-78 14-22 6-36-12-28-36 32-236 2-12 11-22t20-15 23-5h28q48-90 146-140v-78q0-20 14-34t34-14h56q20 0 35 14t15 34v42h68v-42q0-20 14-34t34-14h58q20 0 34 14t14 34v78q82 42 131 116t49 162q0 44-14 88l74 38q20 10 10 30v0z" />
<glyph unicode="&#xf104;" glyph-name="shop" d="M484 808q-38 0-68-37t-36-85h210q-6 48-36 85t-68 37h-2zM662 162l52 22 60 30v-120q0-10-14-18t-26-8h-492q-18 0-18 26v586q0 30 18 30h84q4 38 25 71t57 55 76 22h2q60 0 106-45t52-103h90q12 0 26-10t14-20v-276l-46 68q0 2-4 3t-9 2-7 1l-8 2-120 32q-2 2-4 2v-2h-6q-4-2-6-8l-34-128q-2-4 0-8l116-202q0-2 2-2l2-2 2-1t4-1h2q2 0 4 2zM804 284q4-8-4-14l-58-32-44-26-32-16q0-2-2-2h-4q-2 0-4 2l-2 2-94 164q-2 2 0 6l28 104q2 4 4 6 2 0 4 2h4l98-28 6-2q4 0 6-4l32-54zM642 384q22 14 10 38-2 2-4 6l-2 2q0 2-2 2l-2 2q-2 0-6 2h-12q-4-2-6-4-20-14-8-38 0-2 2-6l2-2 4-2v-2q4 0 6-2h14z" />
<glyph unicode="&#xf111;" glyph-name="search" d="M204 618q0-82 57-141t139-59 139 59 57 142-57 141-139 58q-54 0-99-27t-71-73-26-100zM902 70q22-28 0-52-10-10-27-22t-29-20l-12-8q-32-4-46 10l-238 302v8l18 20-30 34q-66-34-138-34-82 0-152 42t-111 113-41 155q0 128 89 219t215 91 215-91 89-219q0-126-88-216l24-38 18 16h16z" />
<glyph unicode="&#xf115;" glyph-name="ticket" d="M132 226l384 670q6 12 19 16t25-4l68-38q-20-38-8-78t50-62 80-11 64 49l64-38q12-6 16-19t-2-25l-386-674q-6-12-20-16t-26 4l-66 38q22 38 10 80t-50 64-80 11-64-49l-66 38q-12 6-15 19t3 25z" />
<glyph unicode="&#xf131;" glyph-name="children" d="M890 452q16-2 30-12t21-25 5-31l-6-28q-2-24-23-37t-49-9h-218q-24 0-50 13t-32 33q-24 4-39 24t-11 46v4h-10v-4q4-26-11-46t-39-24q-10-20-34-33t-50-13h-216q-18-2-34 3t-26 16-12 27l-6 28q-2 24 13 45t43 23l234 34q-60 58-60 138 0 6 3 17t3 19q-40 10-64 42t-24 72q0 52 36 89t88 37q90 0 128-88 10 4 38 4 22 0 36-4 10 38 44 63t76 25q52 0 88-37t36-93q0-26-11-50t-31-41-46-23q6-14 6-38 0-78-56-132zM328 702q34 66 102 100-22 38-64 38-32 0-53-22t-21-52q0-42 36-64zM512 448q48 0 82 35t34 81q0 44-34 77t-82 33q-30 0-57-16t-42-43-15-57q0-44 34-77t80-33zM596 798q70-28 96-102 42 26 42 66 0 30-21 51t-53 21q-42 0-64-36zM512 632q22 0 39-15t17-35-17-35-39-15q-20 0-35 14t-15 35 15 36 35 15zM352 264q54 0 91-42t37-100-38-100-90-42-89 41-39 101q0 38 17 71t47 52 64 19zM674 264q34 0 63-19t46-52 19-71q0-58-38-100t-90-42q-54 0-91 41t-37 101q0 58 38 100t90 42z" />
<glyph unicode="&#xf133;" glyph-name="like" d="M630 880q4 16 32 16 52 0 80-40t28-100q0-38-24-99t-42-101-8-40h10q30-2 49-3t53-10 54-22 36-39 16-64q0-50-32-92 18-28-1-72t-37-50q0-28-19-59t-49-35q0-22-18-45t-52-36-84 7q-60-18-108-10-8 2-38 21t-63 48-47 53h-16l4 352q26 2 32 8 130 154 216 272 8 12 15 47t9 63zM64 464q0 14 9 23t23 9h164q14 0 23-9t9-23v-390q0-14-9-24t-23-10h-164q-14 0-23 10t-9 24v390z" />
<glyph unicode="&#xf135;" glyph-name="clock" d="M512 128q132 0 226 94t94 226-94 226-226 94-226-94-94-226 94-226 226-94zM512 32q-172 0-294 122t-122 294 122 294 294 122 294-122 122-294-122-294-294-122zM536 656v-184h120q16 0 28-12t12-28-12-28-28-12h-160q-16 0-28 12t-12 28v224q0 16 12 28t28 12 28-12 12-28z" />
<glyph unicode="&#xf139;" glyph-name="cart" d="M930 742q14 0 23-12t7-24l-76-330q-4-24-28-24h-480l16-68h448q48 0 48-30t-48-30h-474q-24 0-28 22l-122 558h-133t-12 7-7 21q0 32 36 32h140q24 0 28-24l22-98h640zM764 52q-22 0-38 16t-16 38 16 38 38 16 38-16 16-38-16-38-38-16zM437 52q-23 0-38 16t-15 38 15 38 38 16 38-16 15-38-15-38-38-16z" />
<glyph unicode="&#xf140;" glyph-name="tv" d="M64 736q0 14 9 23t23 9h832q8 0 16-4t12-12 4-16v-544q0-14-9-23t-23-9h-832q-14 0-23 9t-9 23v544zM160 672v-416h704v416h-704zM320 128h384v-64h-384v64z" />
<glyph unicode="&#xf144;" glyph-name="360" d="M818 440l6 54q40-10 75-38t45-54q16-42-32-79t-148-59-228-22q-20 0-34 9t-14 21q0 8 6 15t16 10 22 3q100 0 181 16t118 39 29 47q-4 20-42 38zM390 306v0l-6-27t-6-11l-158-40q-10-4-20 2t-6 12l22 42q-50 14-83 34t-48 43-9 45q12 56 134 94v-52q-46-20-50-42-4-18 19-35t67-31l10 48q4 6 14 6 10 4 18-2l98-74q4-4 4-8v-4zM248 488l44 6q2-14 12-24 8-10 23-10t25 10q10 14 10 30 0 18-10 26-8 10-22 10-4 0-22-2l6 36q16 0 28 8 10 8 10 22 0 12-7 19t-19 7q-10 0-20-8-8-8-10-22l-42 6q4 20 14 34 6 10 24 20 16 8 36 8 32 0 56-20 12-26 12-42 0-30-34-50 20-4 32-18 14-16 14-36 0-32-24-54t-58-22q-32 0-52 20-22 16-26 46v0zM590 604l-44-4q-4 14-10 20t-16 6q-14 0-25-13t-13-55q18 22 42 22 30 0 48-22 22-24 22-56 0-36-22-58t-56-22q-36 0-59 27t-23 91 24 93 64 29q28 0 46-14t22-44v0zM486 506q0-24 10-34 12-12 24-12t20 10q10 10 10 34 0 22-10 32-8 12-22 12t-22-12q-10-14-10-30v0zM698 662q36 0 56-24 22-28 22-96 0-66-22-96-20-24-56-24-34 0-56 27t-22 94 24 95q22 24 54 24v0zM698 624q-8 0-14-6-4-2-10-18-4-18-4-58 0-42 4-58t10-20q8-6 14-6 10 0 16 6 4 2 10 18 4 18 4 60 0 40-4 56t-10 22q-6 4-16 4v0z" />
<glyph unicode="&#xf148;" glyph-name="warning" d="M556 652h-86v-120l16-200h52l18 200v120zM512 170q24 0 42 17t18 41q0 16-8 30t-22 22-30 8q-12 0-23-5t-19-13-13-19-5-23q0-24 18-41t42-17zM910 244v0q42-56 49-100t-13-67-45-34-51-11h-682q-36 0-65 20t-38 67 39 125l288 520q2 6 15 28t41 47 56 25h10q18 0 35-10t31-25 24-30 16-25l6-10z" />
<glyph unicode="&#xf153;" glyph-name="mobile" d="M702 896q18 0 33-9t24-24 9-33v-764q0-18-9-33t-24-24-33-9h-380q-28 0-47 19t-19 47v764q0 18 9 33t24 24 33 9h380zM464 848q-16 0-16-16t16-16h98q14 0 14 16t-14 16h-98zM515 64q27 0 45 19t18 45-18 45-45 19-46-19-19-45 19-45 46-19zM708 256v512h-388v-512h388z" />
<glyph unicode="&#xf172;" glyph-name="minibar" d="M904 828q8 0 14-6t6-14v-752q0-8-6-14t-14-6h-752q-8 0-14 6t-6 14v752q0 8 6 14t14 6h752zM882 78v708h-708v-708h708zM248 98q-22 0-38 17t-16 39v290q0 84 58 106v174h84v-174q68-36 68-106v-290q0-10-5-21t-12-18-17-12-20-5h-102zM236 432v-42h126v42h-126zM612 140v128l-166 206h370l-164-206v-128h116q22 0 22-21t-22-21h-270q-22 0-22 21t22 21h114zM682 392q-12 0-20-9t-8-21q0-8 4-14t10-10 14-4q12 0 21 8t9 20-9 21-21 9z" />
<glyph unicode="&#xf173;" glyph-name="sauna" d="M373 590q-31 0-54 23t-23 55 23 54 54 22 54-22 23-54-23-55-54-23zM584 326q38-6 44-40l48-228q4-20-8-37t-33-20-39 8-22 31l-34 170h-196q-8 0-18 4h-24q-8 0-17 4t-15 11-10 16-4 19v244q0 12 6 24t17 18 23 6h38q18 0 32-14t14-34v-170h170q16 0 28-12zM256 126v42h260v-42h-260zM602 420q-4 2-11 6t-22 23-22 42-3 63 24 87 29 88 8 64-5 40-10 25l-6 6q56-36 64-106t-30-134q-20-38-25-89t3-83zM704 762q54-36 62-107t-28-133q-22-38-26-89t2-83l6-32q-4 2-11 6t-21 23-22 42-4 63 24 88q34 74 38 130t-8 74z" />
<glyph unicode="&#xf174;" glyph-name="balcony" d="M900 672v-42h-46q6-4 6-16 0-34-52-34v-92q18-8 18-16 0-12-12-18 12-32 22-90t10-82q0-32-32-46 46-14 46-50 0-12-6-16h46v-38h-836v38h46q-4 4-4 16 0 16 14 30t32 16q-34 14-34 46 0 18 11 78t23 94q-12 6-12 16 0 18 16 18v92q-50 6-50 38 0 12 4 20h-46v38h836zM462 488h4v88q-50 6-50 38v20h-176q4-4 4-16 0-30-50-38v-92q16-8 16-16 0-12-12-18 8-26 16-63t13-67 5-42q0-32-34-46 46-14 46-50 0-12-4-16h180q-4 4-4 16 0 38 46 50-34 14-34 46 0 20 9 77t21 91q-14 6-14 16 0 14 18 22zM772 488v92q-52 8-52 38 0 12 6 16h-180q4-4 4-16 0-30-50-38v-92q16-8 16-16 0-12-12-18 14-32 23-90t9-82q0-32-32-46 46-14 46-50 0-12-4-16h180q-6 4-6 16 0 38 48 50-34 14-34 46 0 18 11 78t23 94q-14 6-14 18 0 8 18 16z" />
<glyph unicode="&#xf176;" glyph-name="block" d="M96 832q0 14 9 23t23 9h322q14 0 23-9t9-23v-332q0-14-9-23t-23-9h-322q-14 0-23 9t-9 23v332zM542 832q0 6 2 12t7 10 11 7 12 3h322q14 0 23-9t9-23v-332q0-14-9-23t-23-9h-322q-14 0-23 9t-9 23v332zM96 396q0 14 9 23t23 9h322q14 0 23-9t9-23v-332q0-14-9-23t-23-9h-322q-14 0-23 9t-9 23v332zM542 396q0 8 4 16t12 12 16 4h322q14 0 23-9t9-23v-332q0-14-9-23t-23-9h-322q-14 0-23 9t-9 23v332z" />
<glyph unicode="&#xf182;" glyph-name="speak" d="M620 752q102 0 173-70t71-170-71-170-171-70h-70v-128q0-6-4-11t-12-5-20 10l-148 132q-90 14-149 82t-59 160q0 48 19 93t52 77 78 51 95 19h216zM338 521q0-17 12-28t28-11q6 0 12 2t11 6 8 8 5 10 2 12q0 12-5 21t-14 14-19 5q-16 0-28-11t-12-28zM514 560q-16 0-28-11t-12-28 12-28 28-11 27 11 11 27q0 12-5 21t-14 14-19 5zM610 521q0-17 11-28t27-11 28 11 12 28-12 28-28 11-27-11-11-28z" />
<glyph unicode="&#xf204;" glyph-name="load" d="M298 222q90-86 214-76l-16-114q-142-2-252 88-62 52-100 124-62 116-45 252t109 234l-76 78q-2 4 0 8t6 6l266 42q2 0 5-2t3-6l-42-280q0-4-4-6t-8 2l-74 78q-60-64-75-153t17-167q24-64 72-108zM816 166l76-78q2-4 0-8t-6-6l-266-42q-2 0-5 2t-3 6l42 280q0 4 4 6t8-2l74-78q60 64 75 153t-17 167q-24 64-72 108-90 86-214 76l16 114q142 2 252-88 62-52 100-124 62-116 45-252t-109-234z" />
<glyph unicode="&#xf209;" glyph-name="info-simple" d="M610 230q12 0 21-10t9-24q0-16-8-26-10-12-22-12h-196q-12 0-21 10t-9 26 8 26q10 10 22 10h26v200h-26q-12 0-21 10t-9 25 8 25q10 12 22 12h128q16 0 29-12t13-30v-230h26zM504 568q-34 0-59 25t-25 60 25 60 59 25q36 0 60-25t24-60-24-60-60-25z" />
</font>
</defs>
</svg>
